<?xml version="1.0" encoding="utf-8"?>
<svg id="master-artboard" viewBox="0 0 1000 200" version="1.1" xmlns="http://www.w3.org/2000/svg" x="0px" y="0px" style="enable-background:new 0 0 336 235.2;" width="1000px" height="200px"><defs><filter id="Adobe_OpacityMaskFilter" filterUnits="userSpaceOnUse" x="1.1" y="621.4" width="1093.8" height="91.8">
		<feColorMatrix type="matrix" values="1 0 0 0 0  0 1 0 0 0  0 0 1 0 0  0 0 0 1 0"/>
	</filter><linearGradient id="gradient-0" gradientUnits="userSpaceOnUse" x1="530.9221515655518" y1="595.9329223632812" x2="530.9221515655518" y2="688.2442626953125">
                <stop offset="0" style="stop-color: #000139"/>
                <stop offset="1" style="stop-color: #000000"/>
              </linearGradient><linearGradient id="gradient-1" gradientUnits="userSpaceOnUse" x1="288.8502960205078" y1="256.14849853515625" x2="288.8502960205078" y2="319.9808349609375">
                <stop offset="0" style="stop-color: #0a0302"/>
                <stop offset="1" style="stop-color: #000000"/>
              </linearGradient><linearGradient id="gradient-2" gradientUnits="userSpaceOnUse" x1="281.6231689453125" y1="235.18988037109375" x2="281.6231689453125" y2="299.0222473144531">
                <stop offset="0" style="stop-color: rgb(129, 38, 99);"/>
                <stop offset="1" style="stop-color: rgb(0, 1, 58);"/>
              </linearGradient><linearGradient id="gradient-3" gradientUnits="userSpaceOnUse" x1="474.4476318359375" y1="507.6775207519531" x2="474.4476318359375" y2="555.9609985351562" gradientTransform="matrix(1, 0, 0, 1.3614047684359425, 0, -186.70835618639558)">
                <stop offset="0" style="stop-color: rgb(0, 1, 58);"/>
                <stop offset="1" style="stop-color: rgb(130, 39, 100);"/>
              </linearGradient><filter id="Adobe_OpacityMaskFilter_1_" filterUnits="userSpaceOnUse" x="1.1" y="621.4" width="1093.8" height="91.8">
		<feColorMatrix type="matrix" values="1 0 0 0 0  0 1 0 0 0  0 0 1 0 0  0 0 0 1 0"/>
	</filter></defs><g transform="matrix(1.399999976158142, 0, 0, 1.399999976158142, -209.5302276611328, -59.25794982910156)"><rect id="ee-background" x="0" y="0" width="1000" height="200" style="fill: white; fill-opacity: 0; pointer-events: none;"/><radialGradient id="SVGID_1_" cx="290.9497" cy="274.1988" r="463.8224" gradientTransform="matrix(1.6381 0 0 1.6381 -2.1591 65.4138)" gradientUnits="userSpaceOnUse">
	<stop offset="1.015230e-02" style="stop-color:#FEFBDF"/>
	<stop offset="0.3503" style="stop-color:#F9F06C"/>
	<stop offset="0.6244" style="stop-color:#F7C613"/>
	<stop offset="0.7243" style="stop-color:#F9B019"/>
	<stop offset="0.7817" style="stop-color:#FAA71A"/>
	<stop offset="0.9695" style="stop-color:#F04C23"/>
</radialGradient><radialGradient id="SVGID_3_" cx="549.0001" cy="388.1879" r="244.7705" gradientTransform="matrix(-1 0 0 -1 1097 782)" gradientUnits="userSpaceOnUse">
	<stop offset="0" style="stop-color:#FFFDEB"/>
	<stop offset="0.2328" style="stop-color:#FFFCE7"/>
	<stop offset="0.4418" style="stop-color:#FFF9DE"/>
	<stop offset="0.6416" style="stop-color:#FFF5CF"/>
	<stop offset="0.8346" style="stop-color:#FFF0BA"/>
	<stop offset="1" style="stop-color:#FFEAA3"/>
</radialGradient><linearGradient id="SVGID_4_" gradientUnits="userSpaceOnUse" x1="557.6577" y1="714.8879" x2="557.6577" y2="535.0382">
	<stop offset="0" style="stop-color:#000000"/>
	<stop offset="0.1554" style="stop-color:#060200"/>
	<stop offset="0.3693" style="stop-color:#180900"/>
	<stop offset="0.6171" style="stop-color:#351300"/>
	<stop offset="0.8884" style="stop-color:#5D2100"/>
	<stop offset="1" style="stop-color:#702800"/>
</linearGradient><linearGradient id="SVGID_5_" gradientUnits="userSpaceOnUse" x1="522.2745" y1="714.8879" x2="522.2745" y2="535.0382">
	<stop offset="0" style="stop-color:#000000"/>
	<stop offset="0.1554" style="stop-color:#060200"/>
	<stop offset="0.3693" style="stop-color:#180900"/>
	<stop offset="0.6171" style="stop-color:#351300"/>
	<stop offset="0.8884" style="stop-color:#5D2100"/>
	<stop offset="1" style="stop-color:#702800"/>
</linearGradient><linearGradient id="SVGID_6_" gradientUnits="userSpaceOnUse" x1="548" y1="714.8879" x2="548" y2="535.0382">
	<stop offset="0" style="stop-color:#000000"/>
	<stop offset="0.1554" style="stop-color:#060200"/>
	<stop offset="0.3693" style="stop-color:#180900"/>
	<stop offset="0.6171" style="stop-color:#351300"/>
	<stop offset="0.8884" style="stop-color:#5D2100"/>
	<stop offset="1" style="stop-color:#702800"/>
</linearGradient><linearGradient id="SVGID_7_" gradientUnits="userSpaceOnUse" x1="538.0183" y1="698.1996" x2="538.0183" y2="491.0433">
	<stop offset="0" style="stop-color:#000000"/>
	<stop offset="0.1554" style="stop-color:#060200"/>
	<stop offset="0.3693" style="stop-color:#180900"/>
	<stop offset="0.6171" style="stop-color:#351300"/>
	<stop offset="0.8884" style="stop-color:#5D2100"/>
	<stop offset="1" style="stop-color:#702800"/>
</linearGradient><linearGradient id="SVGID_8_" gradientUnits="userSpaceOnUse" x1="538.0182" y1="714.8879" x2="538.0183" y2="535.0382">
	<stop offset="0" style="stop-color:#000000"/>
	<stop offset="0.1554" style="stop-color:#060200"/>
	<stop offset="0.3693" style="stop-color:#180900"/>
	<stop offset="0.6171" style="stop-color:#351300"/>
	<stop offset="0.8884" style="stop-color:#5D2100"/>
	<stop offset="1" style="stop-color:#702800"/>
</linearGradient><linearGradient id="SVGID_27_" gradientUnits="userSpaceOnUse" x1="548" y1="780" x2="548" y2="624.0787">
	<stop offset="1.015230e-02" style="stop-color:#FEFBDF"/>
	<stop offset="0.3503" style="stop-color:#F9F06C"/>
	<stop offset="0.6244" style="stop-color:#F7C613"/>
</linearGradient><mask maskUnits="userSpaceOnUse" x="1.1" y="621.4" width="1093.8" height="91.8" id="SVGID_28_">
	<g class="st28" style="filter: url('#Adobe_OpacityMaskFilter');">
		
			<linearGradient id="SVGID_29_" gradientUnits="userSpaceOnUse" x1="547.9315" y1="5.5384" x2="547.9315" y2="-86.4214" gradientTransform="matrix(-1 0 0 -1 1096.3896 628.3779)">
			<stop offset="0" style="stop-color:#FFFFFF"/>
			<stop offset="0.1107" style="stop-color:#F2F1F1"/>
			<stop offset="0.2415" style="stop-color:#DAD9D8"/>
			<stop offset="0.3825" style="stop-color:#B9B7B6"/>
			<stop offset="0.5306" style="stop-color:#908D8D"/>
			<stop offset="0.6844" style="stop-color:#636160"/>
			<stop offset="0.8404" style="stop-color:#383636"/>
			<stop offset="0.995" style="stop-color:#010101"/>
		</linearGradient>
		<path d="M 1.1 621.400024 H 1095.799951 V 713.400024 H 1.1 V 621.400024 Z" class="st29" style="fill-rule: evenodd; clip-rule: evenodd; fill: url('#SVGID_29_');"/>
	</g>
</mask><radialGradient id="SVGID_30_" cx="548" cy="667.3116" r="388.0712" gradientUnits="userSpaceOnUse">
	<stop offset="1.015230e-02" style="stop-color:#FEFBDF"/>
	<stop offset="0.3503" style="stop-color:#F9F06C"/>
	<stop offset="0.6244" style="stop-color:#F7C613"/>
	<stop offset="0.7243" style="stop-color:#F9B019"/>
	<stop offset="0.7817" style="stop-color:#FAA71A"/>
	<stop offset="0.9695" style="stop-color:#F04C23"/>
</radialGradient><mask maskUnits="userSpaceOnUse" x="1.1" y="621.4" width="1093.8" height="91.8" id="SVGID_31_">
	<g class="st31" style="filter: url('#Adobe_OpacityMaskFilter_1_');">
		
			<linearGradient id="SVGID_32_" gradientUnits="userSpaceOnUse" x1="547.9315" y1="5.5384" x2="547.9315" y2="-86.4214" gradientTransform="matrix(-1 0 0 -1 1096.3896 628.3779)">
			<stop offset="0" style="stop-color:#FFFFFF"/>
			<stop offset="0.1107" style="stop-color:#F2F1F1"/>
			<stop offset="0.2415" style="stop-color:#DAD9D8"/>
			<stop offset="0.3825" style="stop-color:#B9B7B6"/>
			<stop offset="0.5306" style="stop-color:#908D8D"/>
			<stop offset="0.6844" style="stop-color:#636160"/>
			<stop offset="0.8404" style="stop-color:#383636"/>
			<stop offset="0.995" style="stop-color:#010101"/>
		</linearGradient>
		<path d="M 1.1 621.400024 H 1095.799951 V 713.400024 H 1.1 V 621.400024 Z" class="st32" style="fill-rule: evenodd; clip-rule: evenodd; fill: url('#SVGID_32_');"/>
	</g>
</mask><radialGradient id="SVGID_33_" cx="548" cy="667.3116" r="388.0712" gradientUnits="userSpaceOnUse">
	<stop offset="1.015230e-02" style="stop-color:#FEFBDF"/>
	<stop offset="0.5263" style="stop-color:#FEFBDF"/>
	<stop offset="0.9093" style="stop-color:#F7C613"/>
</radialGradient><g transform="matrix(1, 0, 0, 1, 21.482055414949343, -372.02795028686523)"><g transform="matrix(0.5387761592864991, 0, 0, 0.4254217445850372, 285.0716114910218, 279.7601623535156)"><g transform="matrix(0.550033450126648, 0, 0, 0.550033450126648, 671.6266579572358, 191.54155253680875)">
	<linearGradient id="SVGID_34_" gradientUnits="userSpaceOnUse" x1="170.3489" y1="535.7667" x2="286.1617" y2="535.7667">
		<stop offset="0" style="stop-color:#702800"/>
		<stop offset="5.089694e-02" style="stop-color:#581F00"/>
		<stop offset="0.124" style="stop-color:#3D1600"/>
		<stop offset="0.2075" style="stop-color:#260E00"/>
		<stop offset="0.3042" style="stop-color:#150800"/>
		<stop offset="0.4223" style="stop-color:#090300"/>
		<stop offset="0.5846" style="stop-color:#020100"/>
		<stop offset="1" style="stop-color:#000000"/>
	</linearGradient>
	<path class="st34" d="M189.5,701.9c-15-105.1,81-314.2,87.3-324.9c6.3-10.7,19.1-27.1-3.3-0.3C224.6,435.3,165.8,652.9,170.6,697&#10;&#9;&#9;c0.6,5.1,1.5,9.2,2.7,12.4h16.1C189.9,707.2,189.9,704.7,189.5,701.9z" style="fill: rgb(0, 1, 58);"/>
	<linearGradient id="SVGID_35_" gradientUnits="userSpaceOnUse" x1="91.9696" y1="597.2043" x2="180.2579" y2="597.2043">
		<stop offset="0" style="stop-color:#702800"/>
		<stop offset="5.089694e-02" style="stop-color:#581F00"/>
		<stop offset="0.124" style="stop-color:#3D1600"/>
		<stop offset="0.2075" style="stop-color:#260E00"/>
		<stop offset="0.3042" style="stop-color:#150800"/>
		<stop offset="0.4223" style="stop-color:#090300"/>
		<stop offset="0.5846" style="stop-color:#020100"/>
		<stop offset="1" style="stop-color:#000000"/>
	</linearGradient>
	<path class="st35" d="M179.6,703.5c7.2-28-44.1-153.8-78.1-206.4c-13-20.1-11.2-12.1-2.9,2.9c55.2,99,74.5,177.4,61.5,209.4h17&#10;&#9;&#9;C178.1,707.7,179,705.8,179.6,703.5z" style="fill: rgb(0, 1, 58);"/>
	<g>
		<linearGradient id="SVGID_36_" gradientUnits="userSpaceOnUse" x1="283.8059" y1="330.8352" x2="378.8819" y2="330.8352">
			<stop offset="0" style="stop-color:#702800"/>
			<stop offset="5.089694e-02" style="stop-color:#581F00"/>
			<stop offset="0.124" style="stop-color:#3D1600"/>
			<stop offset="0.2075" style="stop-color:#260E00"/>
			<stop offset="0.3042" style="stop-color:#150800"/>
			<stop offset="0.4223" style="stop-color:#090300"/>
			<stop offset="0.5846" style="stop-color:#020100"/>
			<stop offset="1" style="stop-color:#000000"/>
		</linearGradient>
		<path class="st36" d="M284.6,364c3-8.4,24.2-29.4,29.5-36.2c4.6-5.9,25.8-28,37.1-33.2c-5.2,4.2-11.2,14-12.1,15.5&#10;&#9;&#9;&#9;c9.3-10.1,19.7-15.8,26.2-17.7c-3.5,2.8-9,5.4-10.8,9.9c3.3-1.5,7-4.4,12.2-4.2c-3.2,1.7-5.5,5.3-6.9,6.7c5.4-2.6,13-5,19-5.1&#10;&#9;&#9;&#9;c-6.4,1.9-11.7,5-16.6,7.1c3.6,0.5,7.2,1.7,10.7,2.8c-4.3-0.1-8.7,0.3-13,1.2c3.4,0.2,8.8,4.9,8.4,7.7c-3.2-3.5-6.3-5.1-10.1-5.9&#10;&#9;&#9;&#9;c-2.4-0.5,2.4,3.4-1.6,8.8c0.6-3.8-0.9-8.3-3.5-10c1.7,5.5-1.4,12.1-4.4,15.1c0.3-3.2,0.9-6.4-3.7-9.6c-0.1,2.4,2.5,4.7,0.4,8.4&#10;&#9;&#9;&#9;c-2.7-4-6.2-3.8-9.5-1.8c4.5,0.6,7,3.2,9.5,7.6c-3.9-2.5-7.6-2.9-11.4-2.2c3,2.1,5.9,4.3,7.2,8.4c-3.5-2.5-7.7-5.3-12.5-4&#10;&#9;&#9;&#9;c3.2,0.3,6.5,3.9,7.1,5.3c-2.4-1.1-4.3-2.8-7.4-2c2.1,0.5,3.5,1.3,4,4.1c-3.2-2.4-11.8-1-10-0.6c3.7,0.9,5.3,4.5,4.8,6.8&#10;&#9;&#9;&#9;c-2.6-4.4-7.2-2.9-10.6-1.9c0.5,0.5,2.6,1.5,3.4,3.3c-3-0.6-6.4,0.3-8.8,0.7c2.5,0.6,5.6,3.8,4.9,7.2c-2.4-4.4-5.2-4.4-8.2-5&#10;&#9;&#9;&#9;c-1.7,0.4-0.9,4.2,1.7,7.3c-8.9-4.9-17.2,3.8-19.5,7.3C287.8,369.2,281.6,372.3,284.6,364z" style="fill: rgb(0, 1, 58);"/>
		<linearGradient id="SVGID_37_" gradientUnits="userSpaceOnUse" x1="264.8089" y1="426.9963" x2="301.2123" y2="426.9963">
			<stop offset="0" style="stop-color:#702800"/>
			<stop offset="5.089694e-02" style="stop-color:#581F00"/>
			<stop offset="0.124" style="stop-color:#3D1600"/>
			<stop offset="0.2075" style="stop-color:#260E00"/>
			<stop offset="0.3042" style="stop-color:#150800"/>
			<stop offset="0.4223" style="stop-color:#090300"/>
			<stop offset="0.5846" style="stop-color:#020100"/>
			<stop offset="1" style="stop-color:#000000"/>
		</linearGradient>
		<path class="st37" d="M294.3,481.1c2.1-9,0.8-18.1-0.7-21.9c0.3,9-2.4,13.5-5.2,18.1c1.1-4.4,3.7-12.3,2.1-19&#10;&#9;&#9;&#9;c-1.6,8.2-6.9,17.8-11.8,19.3c2.8-3.8,5.1-8.2,6.3-10.9c-1.5,2-5.6,5.6-7.8,5.6c4.1-4.2,6.2-9,7.9-15c-3.7,5.9-8.4,9.1-11.5,10.9&#10;&#9;&#9;&#9;c4.3-4.2,8.7-12.4,8.9-16.4c-4.6,5.8-11.4,10.4-17.7,8.6c7.6-3.3,12.8-10.4,15.7-19c-2.5,2-6.2,2.9-8,2.6&#10;&#9;&#9;&#9;c3.4-2.8,7.1-9.2,8.7-13.8c-1,1-3,2.4-4.6,3.1c2-3.1,3.6-4.5,4.7-9c-1.8,1.3-4.5,3.3-6.1,3.5c2.5-2.9,6.1-9.9,7.5-14.7&#10;&#9;&#9;&#9;c-1.7,2.8-4.3,3.8-5.6,4.1c3-3.7,4.7-11.3,6.3-15.5c-2.3,3-4.2,4.5-5.9,4.3c4.5-5.3,4.9-17.1,5.5-22.6c0.6-5.1,0.1-15.7,4.6-7.3&#10;&#9;&#9;&#9;C291.8,384.1,311.4,430.3,294.3,481.1z" style="fill: rgb(0, 1, 58);"/>
		<linearGradient id="SVGID_38_" gradientUnits="userSpaceOnUse" x1="195.3447" y1="340.8439" x2="283.1645" y2="340.8439">
			<stop offset="0" style="stop-color:#702800"/>
			<stop offset="5.089694e-02" style="stop-color:#581F00"/>
			<stop offset="0.124" style="stop-color:#3D1600"/>
			<stop offset="0.2075" style="stop-color:#260E00"/>
			<stop offset="0.3042" style="stop-color:#150800"/>
			<stop offset="0.4223" style="stop-color:#090300"/>
			<stop offset="0.5846" style="stop-color:#020100"/>
			<stop offset="1" style="stop-color:#000000"/>
		</linearGradient>
		<path class="st38" d="M195.3,317.5c7.9,0.7,15.1,5.1,18,8.1c-7.3-3.3-11.6-1.9-15.9-0.3c3.9,0.3,10.8,0.1,16.1,4&#10;&#9;&#9;&#9;c-7.1-1-16,1.6-18.1,6.5c3.7-1.8,7.7-2.9,10.2-3.2c-2,1-5.6,4.3-6,6.6c4.3-3.1,8.6-3.8,13.9-3.7c-5.6,2.1-9.1,6.2-11.2,8.9&#10;&#9;&#9;&#9;c4.3-3.3,11.9-5.4,15.2-4.3c-5.6,3.1-10.7,9.1-10.3,16.5c4.1-7.2,10.9-10.6,18.5-10.8c-2.1,2.1-3.5,5.8-3.6,7.8&#10;&#9;&#9;&#9;c3-2.8,8.9-4.7,13.1-5c-1.1,0.7-2.5,2.5-3.4,4c2.9-1.2,4.4-2.5,8.3-2.1c-1.4,1.6-3.6,3.8-4,5.5c2.8-1.7,9.3-3.4,13.5-3.3&#10;&#9;&#9;&#9;c-2.7,0.9-4,3.5-4.4,4.7c3.6-2.1,10.2-1.5,14-1.8c-2.9,1.5-4.4,3.1-4.6,5.1c5.1-3.2,15.1,0.3,19.6,1.5c4.4,1.1,13,5,6.9-2.5&#10;&#9;&#9;&#9;C275.1,352.4,240.5,315.7,195.3,317.5z" style="fill: rgb(0, 1, 58);"/>
		<linearGradient id="SVGID_39_" gradientUnits="userSpaceOnUse" x1="259.4193" y1="410.5849" x2="356.1009" y2="410.5849">
			<stop offset="0" style="stop-color:#702800"/>
			<stop offset="5.089694e-02" style="stop-color:#581F00"/>
			<stop offset="0.124" style="stop-color:#3D1600"/>
			<stop offset="0.2075" style="stop-color:#260E00"/>
			<stop offset="0.3042" style="stop-color:#150800"/>
			<stop offset="0.4223" style="stop-color:#090300"/>
			<stop offset="0.5846" style="stop-color:#020100"/>
			<stop offset="1" style="stop-color:#000000"/>
		</linearGradient>
		<path class="st39" d="M270.3,362.5c49.1,16.3,67.4,37.2,74.8,48.7c4.3,6.6,12.8,18.2,10.7,27.1c-2.3-6.4-5.3-12.4-9.8-17.2&#10;&#9;&#9;&#9;c4,12.7,3.5,21.7-3.7,29c0.8-4.5,3.1-8.3,1.7-12.1c-1.3,6.5-6.5,15.7-15,22.9c2.1-3.9,5.5-9.4,5.2-15.5c-1.6,4.4-5.6,8.1-7.1,10.2&#10;&#9;&#9;&#9;c4.5-7.7,5.7-17.4,5.4-23.4c-0.7,3.2-2.7,7-4.6,8.6c1.5-3.7,1.4-13,1-16.9c-1.4,3-2.9,5.1-6.1,6.4c2.9-3.4,3.6-10.3,1.9-14.6&#10;&#9;&#9;&#9;c-0.9,4.8-2.5,7.9-6.7,11.2c3-6.1,6.1-16,4.2-24.4c-2.3,8.7-5.4,16.3-10.8,21.8c2.6-6.6,4.4-16.8,2.5-23&#10;&#9;&#9;&#9;c-2.6,6.6-6.8,14.1-12.5,19c3.6-7,7.1-18.3,6.3-24.7c-0.7,3.8-4.2,9.3-8.6,13.6c2-5.7,3.8-10.3,1.6-15.5c-1.2,3.2-3,5.5-5.6,8.1&#10;&#9;&#9;&#9;c1.1-18.3-8.4-23.6-10.5-27c3.7,6.2,5.4,13.1,3.7,17.2c-3.2-14-14-18.3-17.6-20.5C261,365.7,251.3,356.2,270.3,362.5z" style="fill: rgb(0, 1, 58);"/>
		<linearGradient id="SVGID_40_" gradientUnits="userSpaceOnUse" x1="236.197" y1="310.8751" x2="298.4681" y2="310.8751">
			<stop offset="0" style="stop-color:#702800"/>
			<stop offset="5.089694e-02" style="stop-color:#581F00"/>
			<stop offset="0.124" style="stop-color:#3D1600"/>
			<stop offset="0.2075" style="stop-color:#260E00"/>
			<stop offset="0.3042" style="stop-color:#150800"/>
			<stop offset="0.4223" style="stop-color:#090300"/>
			<stop offset="0.5846" style="stop-color:#020100"/>
			<stop offset="1" style="stop-color:#000000"/>
		</linearGradient>
		<path class="st40" d="M287.7,362.8c17.2-51.2,10-78.1,4.4-90.4c-3.3-7.2-8.3-20.6-17.8-23.5c4.3,5.4,7.8,11.1,9.3,17.6&#10;&#9;&#9;&#9;c-9-10.1-17.5-14.4-28.9-12.1c4.7,1.6,9.6,1.7,12.2,4.9c-6.8-2.3-18.5-2.6-30.7,1c4.9,0.3,12.1,0.2,17.6,3.7c-5.1-1-11,0.6-14,0.8&#10;&#9;&#9;&#9;c9.9,0.1,19.6,4.3,24.9,7.7c-3.3-1.1-8.1-1.4-10.9-0.5c4.4,0.6,12.8,5.6,16.1,8c-3.6-0.3-6.6-0.1-9.9,1.9c5.1-0.7,11.7,2.3,14.6,6&#10;&#9;&#9;&#9;c-4.9-1.8-8.9-2-14.7-0.1c7.5,0.6,18.6,3.2,25,9.2c-9.4-2.6-18.4-3.9-27-2.1c7.7,1.2,18.2,5,22.7,10c-7.7-1.2-17.3-1.5-25.6,0.9&#10;&#9;&#9;&#9;c8.8,0.5,21.4,3.5,26.6,7.5c-3.9-1.4-11.2-1.3-18,0.2c6.4,1.3,11.9,2.1,15.1,6.8c-3.7-0.7-7-0.3-11,0.6c17.5,8.6,9.4,11.7,4.5,11&#10;&#9;&#9;&#9;c10.7,10.2,7.6,21.8,7.2,26C278.6,369.2,281.1,382.6,287.7,362.8z" style="fill: rgb(0, 1, 58);"/>
		<linearGradient id="SVGID_41_" gradientUnits="userSpaceOnUse" x1="146.2428" y1="363.3642" x2="268.3657" y2="363.3642">
			<stop offset="0" style="stop-color:#702800"/>
			<stop offset="5.089694e-02" style="stop-color:#581F00"/>
			<stop offset="0.124" style="stop-color:#3D1600"/>
			<stop offset="0.2075" style="stop-color:#260E00"/>
			<stop offset="0.3042" style="stop-color:#150800"/>
			<stop offset="0.4223" style="stop-color:#090300"/>
			<stop offset="0.5846" style="stop-color:#020100"/>
			<stop offset="1" style="stop-color:#000000"/>
		</linearGradient>
		<path class="st41" d="M260.9,357c-5.2-2.5-36.6-14.3-54.3-12.5c-9.1,1-17.3,2.2-26.3,4.6c-10,2.7-17.8,12.8-26.6,15.8&#10;&#9;&#9;&#9;c7-0.1,12.9-4.2,19.3-7.2c-7.1,7.1-19.2,19.4-26.7,24.7c11.9-2.2,22.2-15.6,31.3-21.9c-2.6,5.9-5.8,10.3-14,20.1&#10;&#9;&#9;&#9;c7.3-4.4,11.8-10.6,14.5-13.3c-0.3,3.5-2.1,6.9-4.4,9.2c7.1-3.4,11.8-11.9,14.7-17.7c-0.1,7.6-3.9,15.6-7.5,19.9&#10;&#9;&#9;&#9;c8.8-6.6,10.7-17,15.1-20.6c-0.4,3.9-4.1,12.9-6.9,17.8c4-3.9,8.6-8.1,11.7-14.8c-0.6,3.8-1.5,5.9-3.1,9&#10;&#9;&#9;&#9;c3.3-1.7,9.1-7.8,10.1-11.7c-0.4,4.5-4.6,8.2-6,15.3c2-3.4,8.1-10.3,15.1-13.7c-2,3.7-3.7,6.3-4.9,10.1c3.1-2.5,8.3-8.1,9-10&#10;&#9;&#9;&#9;c0.2,1.1,0.5,5.2-1.1,7.6c3.8-1.7,5.5-4.3,7-6.3c0.2,1.1,0.7,2.4,0.9,3.3c4.6-0.7,8-3,11.7-6c0.1,1.5-2.4,3.7-2.3,4.9&#10;&#9;&#9;&#9;c13.1-5.2,20-1.5,25.5,0.8C269.9,367.6,271.2,362,260.9,357z" style="fill: rgb(0, 1, 58);"/>
		<linearGradient id="SVGID_42_" gradientUnits="userSpaceOnUse" x1="200.5346" y1="417.8083" x2="274.86" y2="417.8083">
			<stop offset="0" style="stop-color:#702800"/>
			<stop offset="5.089694e-02" style="stop-color:#581F00"/>
			<stop offset="0.124" style="stop-color:#3D1600"/>
			<stop offset="0.2075" style="stop-color:#260E00"/>
			<stop offset="0.3042" style="stop-color:#150800"/>
			<stop offset="0.4223" style="stop-color:#090300"/>
			<stop offset="0.5846" style="stop-color:#020100"/>
			<stop offset="1" style="stop-color:#000000"/>
		</linearGradient>
		<path class="st42" d="M268,370.9c-5.8,9.7-24.9,28.9-34.4,41.2c-4.9,6.3-9.9,12.1-15.8,17.2c-5.1,4.5-10.6,10.5-17.3,15.4&#10;&#9;&#9;&#9;c5.1-1,8.7-2.9,13.5-3.5c-3.9,6.7-6.6,9-11,14.3c5.3-1.6,10.7-6.6,13.9-9.8c-4,7.6-6.2,16.8-4.2,23.2c1.7-8.5,4.4-17.5,8.3-25.2&#10;&#9;&#9;&#9;c-0.9,8.5-1.3,14.4,2.3,20.3c-1.2-4.4-0.3-10.1,0.7-13.8c1.3,4,2.7,8.7,4,13.8c1.2-5.8,0-13.1-1.2-18.8c2.1,5.8,4,10.9,7.8,13.5&#10;&#9;&#9;&#9;c-2.5-4.4-4.2-11.7-5-16.1c2.1,4.1,4.4,9.1,7.3,10.3c-2.2-3.4-3.7-9-4.1-13.2c2.3,3.3,6,8.7,7,13.9c1.1-5.4-0.9-14.9-3.6-19.7&#10;&#9;&#9;&#9;c2.1,2.1,4.3,4.3,5.5,8c-0.1-2.7,0.1-6.4-1-9.8c2.7,2.6,3.4,4.6,5.3,9.2c1.2-5.9-1.5-11.9-0.3-19.5c1.4,2,2.8,4.9,3.6,7.1&#10;&#9;&#9;&#9;c0.6-3.1,0.6-8.7-0.1-11.6c0.8,1,1.8,2,2.3,4.1c1.6-4.8,0.3-11,1.1-16.1c0.8,1.3,2.9,6.2,4.5,8.5c-1.4-6.7-1.4-12.8,1.3-19.6&#10;&#9;&#9;&#9;c0.8,2,1,6.9,1.4,8.9c2.1-11.2,8.1-17.2,13.3-25.7C277.1,370.9,273.8,361.2,268,370.9z" style="fill: rgb(0, 1, 58);"/>
		<linearGradient id="SVGID_43_" gradientUnits="userSpaceOnUse" x1="190.6202" y1="321.0196" x2="286.2672" y2="321.0196">
			<stop offset="0" style="stop-color:#702800"/>
			<stop offset="5.089694e-02" style="stop-color:#581F00"/>
			<stop offset="0.124" style="stop-color:#3D1600"/>
			<stop offset="0.2075" style="stop-color:#260E00"/>
			<stop offset="0.3042" style="stop-color:#150800"/>
			<stop offset="0.4223" style="stop-color:#090300"/>
			<stop offset="0.5846" style="stop-color:#020100"/>
			<stop offset="1" style="stop-color:#000000"/>
		</linearGradient>
		<path class="st43" d="M286,360.8c-4.8-21.8-20.8-50.9-28.2-59.5c-9.1-10.6-9.1-18.6-17.6-24.9c1,4.6,2.8,8.9,2.2,11.6&#10;&#9;&#9;&#9;c-4.5-4.8-7.7-10.4-11.3-13.3c1.4,2.8,3.2,6.4,3.7,9.2c-4.2-5-10.9-8.4-16.8-8.2c4.8,2.9,9.8,5.8,12.1,10.9&#10;&#9;&#9;&#9;c-5.7-2-15.3-8.7-24.8-4c3.9-0.5,9.8,3.9,13.3,6c-10.7-3.4-17.5-2.1-23.2-1.1c6.5,0.5,12.8,3.4,17.8,5c-5.3-0.7-16-0.2-22.7,6.8&#10;&#9;&#9;&#9;c5.7-2.7,13.5-3.1,16.6-2.4c-5.6,2.1-9.4,5.6-10.4,8.1c2.6-0.5,5.1-0.5,6.7,0.9c-2.1,5-7.9,8.5-7.1,8c6.8-2.1,12.8-6.5,18.2-10.4&#10;&#9;&#9;&#9;c-1.7,3.9-4.8,8.2-8,11.8c5-2.1,7.2-3.1,10.4-6.6c-1.3,3.1-2.7,6.4-2.6,8.9c4.9-8.4,12.2-5.9,16.4-10.8c-0.5,1.9-1.8,4.5-3,6.3&#10;&#9;&#9;&#9;c2.9-2.1,5.1-5,9-4.5c-0.6,4.6-4.4,8.5-7,10.6c3.9-1.1,9.2-3,14.3-3.8c-1.5,2-6.1,5.4-7.6,7.3c1.2-0.6,5.5-2,6.9-2.1&#10;&#9;&#9;&#9;c-0.2,1-4,3.2-3.9,4.1c4.2-1,6.7-0.1,10,0.3c-0.3,1.5-4.3,3.8-2.6,3.7c2.8-0.2,6.3,2,7.4,1.8c5-0.9,2.2,2.5,0.1,6.2&#10;&#9;&#9;&#9;c1.6,0.6,3.6,0,5.3-0.6c0.5,1.7-1.7,3.3-1.1,4.9c1.9,0.2,3,0.5,4.6,1.6c1.1,0.8,13.4,11.3,14.3,18.2&#10;&#9;&#9;&#9;C278.8,369.8,287.8,369.2,286,360.8z" style="fill: rgb(0, 1, 58);"/>
		<linearGradient id="SVGID_44_" gradientUnits="userSpaceOnUse" x1="271.1275" y1="388.2377" x2="361.1972" y2="388.2377">
			<stop offset="0" style="stop-color:#702800"/>
			<stop offset="5.089694e-02" style="stop-color:#581F00"/>
			<stop offset="0.124" style="stop-color:#3D1600"/>
			<stop offset="0.2075" style="stop-color:#260E00"/>
			<stop offset="0.3042" style="stop-color:#150800"/>
			<stop offset="0.4223" style="stop-color:#090300"/>
			<stop offset="0.5846" style="stop-color:#020100"/>
			<stop offset="1" style="stop-color:#000000"/>
		</linearGradient>
		<path class="st44" d="M275.9,364.9c19.1-5.9,46.6-6,55.4-3.9c10.8,2.6,17.3-1,24.4,3.1c-4.1,1.2-8,1.7-10.1,3.4&#10;&#9;&#9;&#9;c5,1.5,10.3,1.6,13.5,3.2c-2.6,0.1-6,0.3-8.4,1.1c5,1.2,9.3,5.1,10.5,9.9c-3.4-2.6-6.9-5.3-11.6-5c2.9,3.8,10.5,8.6,8.8,18.3&#10;&#9;&#9;&#9;c-0.5-3.4-5.4-6.2-8-8.1c5.2,7.1,5.6,13.3,6,18.4c-1.9-5.1-5.6-8.9-8-12.3c1.7,4,3.7,12.9-0.6,21.5c1-5.8-0.4-12.4-1.7-14.6&#10;&#9;&#9;&#9;c-0.5,5.5-2.6,10.2-4.4,12.1c-0.2-2.4-0.7-4.3-2.2-5c-3.6,3.9-5.2,10.2-5,9.4c0.2-6.4,2.5-13.3,4.5-19.4&#10;&#9;&#9;&#9;c-2.8,3.2-5.7,7.6-7.9,11.8c0.7-5,1-7.2,3.2-11.5c-2.3,2.5-4.7,5-6.8,6.1c5.9-7.8,2.1-12.6,5.3-18.2c-1.5,1.3-3.3,3.5-4.5,5.3&#10;&#9;&#9;&#9;c1.1-3.3,3-6.4,1.7-9.4c-3.7,2.5-6.1,7.3-7.2,10.5c0.1-3.6,0.5-8.8,0-13.2c-1.3,2.1-3.1,7.3-4.4,9.4c0.2-1.2,0.4-5.4,0.2-6.6&#10;&#9;&#9;&#9;c-0.7,0.6-1.7,4.6-2.6,5c-0.1-3.9-1.4-5.5-2.5-8c-1.2,1-2.2,5.2-2.5,3.8c-0.4-2.4-3.1-4.2-3.1-5.2c-0.3-4.5-2.6-0.6-5.1,2.7&#10;&#9;&#9;&#9;c-0.8-1-0.8-2.9-0.7-4.6c-1.5,0.3-2.3,2.8-3.8,3.1c-0.6-1.4-1-2.3-2.3-3c-0.8-0.5-12.3-5.8-18.1-3.5&#10;&#9;&#9;&#9;C270.1,374.9,268.6,367.2,275.9,364.9z" style="fill: rgb(0, 1, 58);"/>
		<linearGradient id="SVGID_45_" gradientUnits="userSpaceOnUse" x1="163.4965" y1="401.6321" x2="280.4677" y2="401.6321">
			<stop offset="0" style="stop-color:#702800"/>
			<stop offset="5.089694e-02" style="stop-color:#581F00"/>
			<stop offset="0.124" style="stop-color:#3D1600"/>
			<stop offset="0.2075" style="stop-color:#260E00"/>
			<stop offset="0.3042" style="stop-color:#150800"/>
			<stop offset="0.4223" style="stop-color:#090300"/>
			<stop offset="0.5846" style="stop-color:#020100"/>
			<stop offset="1" style="stop-color:#000000"/>
		</linearGradient>
		<path class="st45" d="M273.9,368.6c-39.4-20.2-66.1,7.8-83.3,10.7c1.2,0.2,6.7,0.3,8.2,0.2c-13.8,6.6-37.8,38.9-35.1,62.3&#10;&#9;&#9;&#9;c1.3-6.7,1.6-14,6.9-19.7c-0.5,2.5-0.4,5,1,7.6c0-4.3,4.5-15.3,7.1-16.3c-0.2,2.5-1.4,6-0.4,7.4c1.4-6.3,5.4-14.9,7-10.4&#10;&#9;&#9;&#9;c1.3-4.8,3.4-11.2,6.1-15.2c-1.5,4.4-1,6.2-0.1,9.4c-0.1-4.6,6.8-12.4,8.3-15.2c0,6.5,1.7,7.2,2.2,13.8c0.5-5.5,5.9-14.8,9.2-14.8&#10;&#9;&#9;&#9;c3.3,0.1,2.6,7.2,2.1,10.8c2.4-1.7,3.9-6.1,4.9-8.7c0.3,2.3,0.9,5.1,1.7,7c0.3-3,1-6.2,2.1-8.3c0.7,1.8,1.4,4.1,2.2,5.5&#10;&#9;&#9;&#9;c1.3-2.8,1.1-6.5,3.5-8.8c1.7-1.6,2.6,4.8,3.6,2.6c3-6.2,6.8-8.2,9.7-9.2c5.6-2,19.8-11.2,32.6-2.7&#10;&#9;&#9;&#9;C278.5,380,286.1,374.9,273.9,368.6z" style="fill: rgb(0, 1, 58);"/>
		<linearGradient id="SVGID_46_" gradientUnits="userSpaceOnUse" x1="184.259" y1="409.7501" x2="277.8782" y2="409.7501">
			<stop offset="0" style="stop-color:#702800"/>
			<stop offset="5.089694e-02" style="stop-color:#581F00"/>
			<stop offset="0.124" style="stop-color:#3D1600"/>
			<stop offset="0.2075" style="stop-color:#260E00"/>
			<stop offset="0.3042" style="stop-color:#150800"/>
			<stop offset="0.4223" style="stop-color:#090300"/>
			<stop offset="0.5846" style="stop-color:#020100"/>
			<stop offset="1" style="stop-color:#000000"/>
		</linearGradient>
		<path class="st46" d="M214.7,395.4c-4,2.8-16.5,4.2-24.2,14.3c5.6-3.9,9.5-3.9,11.7-5.2c-12.4,8.9-15.2,14.4-17.5,19.8&#10;&#9;&#9;&#9;c2.5-2.8,5.5-5.8,7.2-6.1c-3.9,4.3-6.2,10.4-7.6,16.4c1.2-2.2,2.8-2.9,3.6-3.2c-3.4,7.2-1.9,17.8-2,19.8c1.5-6.8,4.3-15.4,8-23.1&#10;&#9;&#9;&#9;c0.1,5.2,1.6,9.1,3.8,11.7c-1-4.8-1-11.6-0.6-15.5c1.2,4.6,3.1,8.3,4.9,11.3c-0.5-3.7-1.2-7.2-0.7-10.6c0.4,0.5,3.1,3.5,3.6,3.8&#10;&#9;&#9;&#9;c0.1-2.2-0.5-5.4,0.3-7.8c0.7,0.1,2.4,1.4,3,3.7c1.1-4,1.4-9.3,0.6-13.4c3.3,2.6,5.9,8.4,7.6,12c0.4-4.1-0.1-8.3,0.3-12.4&#10;&#9;&#9;&#9;c1.6,0.3,3.3,3.8,4.6,4.9c0.3-2.6,0.2-5.2,0.5-7.8c0.9,1.6,2.5,4.3,3.1,4.6c-0.2-3.8-0.3-13.6,0.8-12.7c2.5,1.9,4.6,5.5,6,6.8&#10;&#9;&#9;&#9;c-0.7-4.7,0-9.4,1.8-11.9c2.7,1.7,3,4.2,3.8,7.8c1-3.3,1.9-8,3.4-9.5c0.4,0.4,1.6,2.4,1.9,4.2c0.9-1.7,0.3-6.6,1.9-7.6&#10;&#9;&#9;&#9;c2-1.1,15.3-14.7,28.9-16.2c8.5-0.9,3.7-7.1-5.7-5C250.2,372.7,229.5,385,214.7,395.4z" style="fill: rgb(0, 1, 58);"/>
		<linearGradient id="SVGID_47_" gradientUnits="userSpaceOnUse" x1="288.7681" y1="314.4305" x2="362.1623" y2="314.4305">
			<stop offset="0" style="stop-color:#702800"/>
			<stop offset="5.089694e-02" style="stop-color:#581F00"/>
			<stop offset="0.124" style="stop-color:#3D1600"/>
			<stop offset="0.2075" style="stop-color:#260E00"/>
			<stop offset="0.3042" style="stop-color:#150800"/>
			<stop offset="0.4223" style="stop-color:#090300"/>
			<stop offset="0.5846" style="stop-color:#020100"/>
			<stop offset="1" style="stop-color:#000000"/>
		</linearGradient>
		<path class="st47" d="M309.8,298.2c2.4-4.5,2.4-17.5,11.6-26.4c-3.3,6.2-2.9,10.2-3.9,12.6c7.6-13.6,12.6-17.1,17.8-19.9&#10;&#9;&#9;&#9;c-2.5,2.9-5.1,6.2-5.3,8c3.8-4.5,9.7-7.4,15.4-9.4c-2,1.4-2.6,3.2-2.8,4c6.8-4.2,17.5-3.6,19.4-4c-6.6,2.2-14.8,5.9-22,10.5&#10;&#9;&#9;&#9;c5.1-0.3,9.2,0.8,12,2.9c-4.8-0.6-11.6,0.1-15.4,0.9c4.6,0.8,8.5,2.4,11.7,4c-3.6-0.1-7.3-0.5-10.6,0.3c0.5,0.3,3.7,2.9,4.1,3.4&#10;&#9;&#9;&#9;c-2.2,0.3-5.4,0-7.7,1c0.2,0.7,1.7,2.4,4,2.7c-3.8,1.5-9.1,2.3-13.2,1.9c2.9,3.1,8.9,5.3,12.7,6.8c-4,0.8-8.2,0.6-12.3,1.5&#10;&#9;&#9;&#9;c0.5,1.6,4.1,3.1,5.3,4.3c-2.5,0.6-5.1,0.7-7.6,1.3c1.7,0.8,4.5,2.2,4.9,2.8c-3.8,0.1-13.5,1-12.5,2c2.2,2.4,6,4.2,7.3,5.6&#10;&#9;&#9;&#9;c-4.7-0.4-9.3,0.9-11.6,3c2,2.6,4.5,2.7,8.2,3.2c-3.2,1.4-7.7,2.7-9,4.4c0.5,0.4,2.5,1.4,4.4,1.6c-1.6,1-6.5,0.9-7.3,2.7&#10;&#9;&#9;&#9;c-0.9,2.2-13,17.2-13.1,31.3c0,8.9-6.7,4.5-5.5-5.4C291.1,337,301.1,314.5,309.8,298.2z" style="fill: rgb(0, 1, 58);"/>
		<g>
			<linearGradient id="SVGID_48_" gradientUnits="userSpaceOnUse" x1="260.4843" y1="369.9038" x2="298.8396" y2="369.9038">
				<stop offset="0" style="stop-color:#702800"/>
				<stop offset="5.089694e-02" style="stop-color:#581F00"/>
				<stop offset="0.124" style="stop-color:#3D1600"/>
				<stop offset="0.2075" style="stop-color:#260E00"/>
				<stop offset="0.3042" style="stop-color:#150800"/>
				<stop offset="0.4223" style="stop-color:#090300"/>
				<stop offset="0.5846" style="stop-color:#020100"/>
				<stop offset="1" style="stop-color:#000000"/>
			</linearGradient>
			<path class="st48" d="M296.7,378.7c-4.8,9.4-16.4,13.1-25.8,8.3c-9.4-4.9-13.1-16.4-8.3-25.8c4.9-9.4,16.4-13.1,25.8-8.3&#10;&#9;&#9;&#9;&#9;C297.9,357.7,301.6,369.2,296.7,378.7z" style="fill: rgb(0, 1, 58);"/>
		</g>
		<linearGradient id="SVGID_49_" gradientUnits="userSpaceOnUse" x1="284.2824" y1="363.0943" x2="399.0977" y2="363.0943">
			<stop offset="0" style="stop-color:#702800"/>
			<stop offset="5.089694e-02" style="stop-color:#581F00"/>
			<stop offset="0.124" style="stop-color:#3D1600"/>
			<stop offset="0.2075" style="stop-color:#260E00"/>
			<stop offset="0.3042" style="stop-color:#150800"/>
			<stop offset="0.4223" style="stop-color:#090300"/>
			<stop offset="0.5846" style="stop-color:#020100"/>
			<stop offset="1" style="stop-color:#000000"/>
		</linearGradient>
		<path class="st49" d="M289.8,368.5c9-4,37.2-12,55.9-7.1c13.5,3.5,24.5,16,21.4,26.1c3.7-3.4,4.1-10,2.6-12.8&#10;&#9;&#9;&#9;c2.7,1.5,4.4,3.1,5.3,5.7c1.2-1.9-1.1-5.9-3.3-7.8c7.2,0.8,11.9,8.9,10.5,15.3c4.4-6,2-12.6-1.7-16c5,1.6,8.8,6.1,10.7,10.7&#10;&#9;&#9;&#9;c1.1-2.5,0.1-8-3-11.6c4.7,2.3,8.2,4.5,10.3,8.2c-0.9-4.9-3.9-9.2-13.2-14c3.4-1.1,11.7,3.7,13.9,6.3c-3.1-5.4-8.1-13.1-26.1-19.6&#10;&#9;&#9;&#9;c4.9-0.6,13.5,1.7,19.3,5.5c-5-6.5-13.3-10.1-25.8-12.6c3.7-2.8,10.7-1.4,16.4-0.8c-17.2-5.4-30.4-6.1-46.4,0.1&#10;&#9;&#9;&#9;c3.4-4,8.4-4.8,13-5.9c-10.6,0.3-40.3,11-52.3,19.2C282.5,367.6,280.8,372.5,289.8,368.5z" style="fill: rgb(0, 1, 58);"/>
	</g>
	<g>
		<linearGradient id="SVGID_50_" gradientUnits="userSpaceOnUse" x1="13.3464" y1="514.9165" x2="107.2642" y2="514.9165">
			<stop offset="0" style="stop-color:#702800"/>
			<stop offset="5.089694e-02" style="stop-color:#581F00"/>
			<stop offset="0.124" style="stop-color:#3D1600"/>
			<stop offset="0.2075" style="stop-color:#260E00"/>
			<stop offset="0.3042" style="stop-color:#150800"/>
			<stop offset="0.4223" style="stop-color:#090300"/>
			<stop offset="0.5846" style="stop-color:#020100"/>
			<stop offset="1" style="stop-color:#000000"/>
		</linearGradient>
		<path class="st50" d="M104,502.4c-6.8-2.7-31.1-1.1-38.2-1.5c-6.1-0.3-31.1,0.7-40.5,4.8c5.4-0.9,14.7,0.7,16,1&#10;&#9;&#9;&#9;c-11.2,0.2-20.4,3.5-25.1,6.5c3.6-0.6,8.2-2.6,11.9-1.3c-2.7,1.2-6.5,1.9-9.3,5.2c2.8-1,6.3-0.5,7.9-0.6c-4.6,1.9-10.1,5.3-13.4,9&#10;&#9;&#9;&#9;c4.6-2.9,9.5-4.5,13.4-6.4c-1.6,2.5-2.9,5.3-4.1,8.1c2.3-2.7,4.9-5.2,7.8-7.4c-1.7,2.2-1.7,8,0.2,9.3c-0.4-3.9,0.3-6.6,1.8-9.4&#10;&#9;&#9;&#9;c1-1.8,0.8,3.3,6.3,3.7c-2.6-1.7-4.6-5-4.2-7.6c2.5,4,8.2,5.7,11.6,5.5c-2.1-1.5-4.4-2.9-3.9-7.5c1.5,1.2,1.6,4.1,4.9,4.9&#10;&#9;&#9;&#9;c-1-3.8,1-5.9,4-6.8c-2,3.1-1.8,6-0.5,9.9c0.6-3.7,2.3-6.2,4.8-8.2c-0.3,3-0.5,5.9,1.2,9c0.3-3.5,0.9-7.6,4.3-9.8&#10;&#9;&#9;&#9;c-1.5,2.1-1.2,6.1-0.6,7.2c0.6-2.1,0.6-4.1,2.8-5.6c-0.8,1.6-1.1,2.9,0.4,4.7c0.3-3.3,5.8-7.8,5-6.5c-1.5,2.7-0.1,5.7,1.6,6.6&#10;&#9;&#9;&#9;c-1.3-4,2.1-6,4.6-7.5c0,0.6-0.5,2.4,0.2,3.9c1.3-2.2,3.7-3.8,5.2-5c-1,1.9-0.7,5.5,1.8,6.9c-1.4-3.9,0.1-5.6,1.4-7.8&#10;&#9;&#9;&#9;c1.2-0.8,3,1.7,3.6,5c1.9-8.1,11.7-8.5,15.1-8C105.5,507.2,110.7,505.1,104,502.4z" style="fill: rgb(0, 1, 58);"/>
		<linearGradient id="SVGID_51_" gradientUnits="userSpaceOnUse" x1="95.5691" y1="558.5076" x2="129.3712" y2="558.5076">
			<stop offset="0" style="stop-color:#702800"/>
			<stop offset="5.089694e-02" style="stop-color:#581F00"/>
			<stop offset="0.124" style="stop-color:#3D1600"/>
			<stop offset="0.2075" style="stop-color:#260E00"/>
			<stop offset="0.3042" style="stop-color:#150800"/>
			<stop offset="0.4223" style="stop-color:#090300"/>
			<stop offset="0.5846" style="stop-color:#020100"/>
			<stop offset="1" style="stop-color:#000000"/>
		</linearGradient>
		<path class="st51" d="M108.2,602.9c-2.9-7-3-14.5-2.3-17.8c0.9,7.3,3.7,10.6,6.6,13.9c-1.5-3.5-4.6-9.5-4.1-15.1&#10;&#9;&#9;&#9;c2.3,6.4,7.8,13.5,12.1,14.1c-2.8-2.7-5.2-6-6.5-8c1.5,1.4,5.3,3.8,7,3.5c-3.8-2.9-6.2-6.5-8.4-11.1c3.8,4.3,8,6.3,10.7,7.3&#10;&#9;&#9;&#9;c-4-2.9-8.6-8.9-9.4-12.1c4.5,4,10.6,6.9,15.5,4.6c-6.6-1.7-11.7-6.7-15.1-13.3c2.3,1.3,5.4,1.5,6.8,1.1c-3.2-1.8-6.9-6.5-8.9-10&#10;&#9;&#9;&#9;c0.9,0.7,2.7,1.5,4.2,1.9c-2-2.3-3.5-3.2-5-6.7c1.6,0.8,4.1,2.1,5.4,2c-2.4-2-6.3-7.2-8-10.9c1.7,2.1,4,2.5,5,2.6&#10;&#9;&#9;&#9;c-2.9-2.6-5.3-8.5-7.1-11.7c2.2,2.1,4,3.1,5.4,2.7c-4.3-3.7-6.2-13.2-7.4-17.5c-1.1-4-2.2-12.7-4.6-5.3&#10;&#9;&#9;&#9;C97.7,524.1,87.8,564,108.2,602.9z" style="fill: rgb(0, 1, 58);"/>
		<linearGradient id="SVGID_52_" gradientUnits="userSpaceOnUse" x1="114.2296" y1="504.118" x2="193.9626" y2="504.118">
			<stop offset="0" style="stop-color:#702800"/>
			<stop offset="5.089694e-02" style="stop-color:#581F00"/>
			<stop offset="0.124" style="stop-color:#3D1600"/>
			<stop offset="0.2075" style="stop-color:#260E00"/>
			<stop offset="0.3042" style="stop-color:#150800"/>
			<stop offset="0.4223" style="stop-color:#090300"/>
			<stop offset="0.5846" style="stop-color:#020100"/>
			<stop offset="1" style="stop-color:#000000"/>
		</linearGradient>
		<path class="st52" d="M194,492c-6.3-1.3-13,0.4-16,2.1c6.5-0.8,9.6,1.3,12.5,3.5c-3.1-0.7-8.5-2.5-13.5-0.6&#10;&#9;&#9;&#9;c5.8,0.9,12.1,5,12.7,9.4c-2.4-2.3-5.4-4.1-7.3-4.9c1.3,1.3,3.4,4.7,3.2,6.6c-2.6-3.4-5.9-5-10.1-6.2c3.9,2.9,5.7,7,6.7,9.6&#10;&#9;&#9;&#9;c-2.6-3.6-8.1-7-10.9-7c3.7,3.8,6.3,9.6,4.2,15.4c-1.5-6.6-6.1-10.8-12-12.9c1.2,2.1,1.4,5.4,1,7c-1.7-2.9-5.9-5.8-9.1-7&#10;&#9;&#9;&#9;c0.7,0.8,1.4,2.5,1.7,4c-2-1.6-2.9-3-6-3.6c0.7,1.6,1.9,3.9,1.9,5.3c-1.8-2-6.5-4.9-9.8-5.8c1.9,1.3,2.3,3.6,2.4,4.8&#10;&#9;&#9;&#9;c-2.4-2.5-7.7-3.6-10.6-4.7c1.9,1.9,2.8,3.5,2.5,5.1c-3.3-3.7-11.9-3.3-15.8-3.5c-3.7-0.2-11.4,0.9-4.8-3.6&#10;&#9;&#9;&#9;C123.2,500.7,159,480,194,492z" style="fill: rgb(0, 1, 58);"/>
		<linearGradient id="SVGID_53_" gradientUnits="userSpaceOnUse" x1="85.3358" y1="544.3509" x2="170.571" y2="544.3509">
			<stop offset="0" style="stop-color:#702800"/>
			<stop offset="5.089694e-02" style="stop-color:#581F00"/>
			<stop offset="0.124" style="stop-color:#3D1600"/>
			<stop offset="0.2075" style="stop-color:#260E00"/>
			<stop offset="0.3042" style="stop-color:#150800"/>
			<stop offset="0.4223" style="stop-color:#090300"/>
			<stop offset="0.5846" style="stop-color:#020100"/>
			<stop offset="1" style="stop-color:#000000"/>
		</linearGradient>
		<path class="st53" d="M94.3,507.3c41.4,9,58.2,24.5,65.1,33.1c4,5,12,13.7,11.1,21.2c-2.4-5-5.4-9.6-9.5-13.2&#10;&#9;&#9;&#9;c4.3,10,4.7,17.4-0.4,23.9c0.3-3.8,1.8-7.1,0.3-10c-0.5,5.4-3.9,13.3-10.2,19.9c1.4-3.4,3.6-8.1,2.9-13.1&#10;&#9;&#9;&#9;c-0.9,3.8-3.8,7.1-4.9,8.9c3-6.6,3.1-14.7,2.3-19.5c-0.2,2.6-1.6,5.9-3,7.4c0.9-3.1,0-10.7-0.7-13.8c-0.9,2.5-1.9,4.4-4.4,5.8&#10;&#9;&#9;&#9;c2.1-3,2-8.7,0.3-12c-0.3,4-1.4,6.7-4.5,9.7c1.9-5.2,3.6-13.6,1.3-20.2c-1.1,7.3-3,13.8-6.9,18.7c1.5-5.6,2.2-14,0-19&#10;&#9;&#9;&#9;c-1.5,5.6-4.3,12-8.6,16.6c2.4-6,4.2-15.6,3-20.6c-0.2,3.1-2.6,7.9-5.8,11.8c1.1-4.8,2.2-8.7,0-12.7c-0.7,2.7-1.9,4.8-3.8,7.1&#10;&#9;&#9;&#9;c-0.7-15-8.9-18.5-10.9-21.1c3.5,4.7,5.6,10.2,4.5,13.7c-3.9-11.1-13-13.7-16.1-15.1C87,510.8,78.3,503.9,94.3,507.3z" style="fill: rgb(0, 1, 58);"/>
		<linearGradient id="SVGID_54_" gradientUnits="userSpaceOnUse" x1="94.909" y1="461.0965" x2="145.437" y2="461.0965">
			<stop offset="0" style="stop-color:#702800"/>
			<stop offset="5.089694e-02" style="stop-color:#581F00"/>
			<stop offset="0.124" style="stop-color:#3D1600"/>
			<stop offset="0.2075" style="stop-color:#260E00"/>
			<stop offset="0.3042" style="stop-color:#150800"/>
			<stop offset="0.4223" style="stop-color:#090300"/>
			<stop offset="0.5846" style="stop-color:#020100"/>
			<stop offset="1" style="stop-color:#000000"/>
		</linearGradient>
		<path class="st54" d="M104.4,503.7c-14.6-41.8-9-63.8-4.6-74c2.6-5.9,6.6-17,14.4-19.5c-3.5,4.4-6.3,9.2-7.5,14.5&#10;&#9;&#9;&#9;c7.3-8.4,14.2-12,23.5-10.2c-3.8,1.4-7.9,1.5-9.9,4.1c5.5-2,15.1-2.4,25.2,0.5c-4,0.3-9.9,0.3-14.4,3.2c4.1-0.9,9,0.4,11.4,0.5&#10;&#9;&#9;&#9;c-8.1,0.2-16,3.7-20.3,6.5c2.7-0.9,6.6-1.2,8.9-0.5c-3.6,0.6-10.4,4.8-13.1,6.7c2.9-0.3,5.4-0.2,8.1,1.5c-4.2-0.5-9.6,2-11.9,5&#10;&#9;&#9;&#9;c4-1.5,7.2-1.7,12-0.2c-6.1,0.6-15.2,2.8-20.4,7.8c7.7-2.2,15-3.4,22.1-2c-6.3,1.1-14.9,4.3-18.5,8.4c6.3-1.1,14.2-1.4,21,0.5&#10;&#9;&#9;&#9;c-7.2,0.5-17.5,3.1-21.7,6.5c3.2-1.2,9.1-1.1,14.7,0c-5.3,1.1-9.7,1.9-12.3,5.7c3-0.6,5.7-0.4,9,0.4c-14.2,7.3-7.6,9.7-3.6,9.1&#10;&#9;&#9;&#9;c-8.6,8.4-6,17.9-5.7,21.4C111.9,508.9,110,519.9,104.4,503.7z" style="fill: rgb(0, 1, 58);"/>
		<linearGradient id="SVGID_55_" gradientUnits="userSpaceOnUse" x1="107.8859" y1="532.3155" x2="198.8848" y2="532.3155">
			<stop offset="0" style="stop-color:#702800"/>
			<stop offset="5.089694e-02" style="stop-color:#581F00"/>
			<stop offset="0.124" style="stop-color:#3D1600"/>
			<stop offset="0.2075" style="stop-color:#260E00"/>
			<stop offset="0.3042" style="stop-color:#150800"/>
			<stop offset="0.4223" style="stop-color:#090300"/>
			<stop offset="0.5846" style="stop-color:#020100"/>
			<stop offset="1" style="stop-color:#000000"/>
		</linearGradient>
		<path class="st55" d="M115.4,508.7c4.7-0.7,32.2-2.3,45.5,3.5c6.8,3,13,5.9,19.4,10c7.1,4.5,10.7,14.4,17,18.8&#10;&#9;&#9;&#9;c-5.5-1.8-9-6.4-13.3-10.4c3.8,7.3,10.2,19.9,14.9,25.9c-8.8-4.6-13.6-17.6-19.1-24.7c0.6,5.2,2,9.4,6,19.1&#10;&#9;&#9;&#9;c-4.6-5.2-6.6-11.1-8.1-13.9c-0.6,2.8,0,5.9,1.2,8.3c-4.7-4.4-6.3-12.2-7.2-17.4c-1.8,5.9-0.8,13.1,1,17.4&#10;&#9;&#9;&#9;c-5.3-7.3-4.2-15.9-6.8-19.8c-0.7,3.2,0,11.1,1,15.6c-2.2-4-4.7-8.4-5.5-14.4c-0.5,3.1-0.3,5,0.3,7.8c-2.2-2.1-5.3-8.3-5.1-11.6&#10;&#9;&#9;&#9;c-0.8,3.6,1.5,7.5,1,13.5c-0.7-3.2-3.8-10-8.5-14.4c0.6,3.3,1.3,5.8,1.4,9.1c-1.8-2.7-4.5-8.4-4.6-10.1c-0.4,0.8-1.6,3.9-1,6.2&#10;&#9;&#9;&#9;c-2.5-2.3-3.2-4.7-3.9-6.6c-0.4,0.8-1.1,1.7-1.5,2.3c-3.5-1.7-5.5-4.3-7.7-7.5c-0.5,1.1,1,3.5,0.6,4.4c-9-7.2-15.3-6.1-20.1-5.6&#10;&#9;&#9;&#9;C105.9,514.8,106.2,510.1,115.4,508.7z" style="fill: rgb(0, 1, 58);"/>
		<linearGradient id="SVGID_56_" gradientUnits="userSpaceOnUse" x1="60.1345" y1="556.2504" x2="98.9766" y2="556.2504">
			<stop offset="0" style="stop-color:#702800"/>
			<stop offset="5.089694e-02" style="stop-color:#581F00"/>
			<stop offset="0.124" style="stop-color:#3D1600"/>
			<stop offset="0.2075" style="stop-color:#260E00"/>
			<stop offset="0.3042" style="stop-color:#150800"/>
			<stop offset="0.4223" style="stop-color:#090300"/>
			<stop offset="0.5846" style="stop-color:#020100"/>
			<stop offset="1" style="stop-color:#000000"/>
		</linearGradient>
		<path class="st56" d="M93.1,513.2c-2,9-11.7,29-15.9,41c-2.2,6.2-4.5,12-7.7,17.5c-2.8,4.8-5.5,10.9-9.4,16.5&#10;&#9;&#9;&#9;c3.7-2.1,6-4.5,9.5-6.3c-1.2,6.2-2.7,8.8-4.8,14c3.7-2.6,6.6-7.9,8.2-11.3c-1.1,6.9-0.4,14.7,2.8,19.2c-0.9-7-1.2-14.7-0.2-21.8&#10;&#9;&#9;&#9;c1.6,6.8,2.8,11.5,7.2,15.1c-2-3.1-2.9-7.7-3.1-10.8c2.1,2.8,4.4,6,6.8,9.6c-0.6-4.8-3.4-10.1-5.9-14.3c3.2,4,5.9,7.4,9.6,8.4&#10;&#9;&#9;&#9;c-3.1-2.8-6.3-8-8.1-11.1c2.7,2.6,5.8,5.9,8.4,6.1c-2.6-2.1-5.2-6-6.7-9.1c2.7,1.9,6.9,5.1,9.1,8.9c-0.6-4.5-4.7-11.3-8-14.3&#10;&#9;&#9;&#9;c2.2,1.1,4.4,2.2,6.3,4.7c-0.8-2.1-1.6-5-3.4-7.3c2.8,1.3,3.9,2.7,6.5,5.7c-0.6-4.9-4.3-8.9-5.4-15c1.6,1.2,3.5,3.1,4.7,4.6&#10;&#9;&#9;&#9;c-0.3-2.5-1.8-6.9-3.1-9c0.9,0.6,1.9,1.1,2.9,2.6c0-4.2-2.7-8.6-3.4-12.8c1,0.8,3.9,4,5.8,5.4c-2.9-4.8-4.4-9.6-4.2-15.5&#10;&#9;&#9;&#9;c1.1,1.4,2.6,5.1,3.5,6.5c-1.3-9.2,1.8-15.5,3.6-23.4C100.1,510.8,95,504.2,93.1,513.2z" style="fill: rgb(0, 1, 58);"/>
		<linearGradient id="SVGID_57_" gradientUnits="userSpaceOnUse" x1="106.937" y1="479.1067" x2="188.9593" y2="479.1067">
			<stop offset="0" style="stop-color:#702800"/>
			<stop offset="5.089694e-02" style="stop-color:#581F00"/>
			<stop offset="0.124" style="stop-color:#3D1600"/>
			<stop offset="0.2075" style="stop-color:#260E00"/>
			<stop offset="0.3042" style="stop-color:#150800"/>
			<stop offset="0.4223" style="stop-color:#090300"/>
			<stop offset="0.5846" style="stop-color:#020100"/>
			<stop offset="1" style="stop-color:#000000"/>
		</linearGradient>
		<path class="st57" d="M107.3,509.9c5.2-17.5,20.1-40.3,26.6-46.9c8.1-8.1,8.6-14.6,15.9-19.3c-1.1,3.7-2.8,7.1-2.5,9.4&#10;&#9;&#9;&#9;c4-3.7,6.9-8,10.1-10.2c-1.4,2.2-3,5-3.6,7.3c3.7-3.8,9.4-6.2,14.2-5.7c-4.1,2.1-8.3,4.1-10.6,8.2c4.8-1.3,13-6.1,20.5-1.8&#10;&#9;&#9;&#9;c-3.2-0.7-8.3,2.6-11.3,4.1c8.9-2.2,14.4-0.6,19,0.5c-5.3,0-10.6,2-14.9,3c4.4-0.2,13.1,0.8,18.1,6.9c-4.5-2.5-10.8-3.4-13.4-3&#10;&#9;&#9;&#9;c4.4,2.1,7.4,5.1,8,7.3c-2.1-0.5-4.1-0.7-5.5,0.3c1.4,4.2,5.9,7.4,5.3,7c-5.4-2.1-10.1-6.1-14.3-9.6c1.2,3.3,3.4,7,5.8,10.1&#10;&#9;&#9;&#9;c-3.9-2-5.7-2.9-8.1-6.1c0.9,2.6,1.8,5.4,1.6,7.4c-3.5-7.2-9.6-5.5-12.7-9.8c0.3,1.6,1.2,3.7,2.1,5.3c-2.2-1.9-3.8-4.4-7.1-4.3&#10;&#9;&#9;&#9;c0.2,3.8,3,7.2,5.1,9.1c-3.1-1.2-7.3-3-11.4-4c1.1,1.7,4.7,4.8,5.8,6.5c-1-0.6-4.4-2-5.5-2.1c0.1,0.8,3,2.9,2.9,3.6&#10;&#9;&#9;&#9;c-3.4-1.1-5.4-0.5-8.2-0.4c0.2,1.3,3.3,3.4,1.9,3.2c-2.3-0.3-5.3,1.2-6.2,1c-4-1.1-1.9,1.9-0.5,5.1c-1.3,0.4-3-0.2-4.3-0.8&#10;&#9;&#9;&#9;c-0.5,1.3,1.2,2.8,0.6,4.1c-1.5,0-2.5,0.2-3.9,1c-0.9,0.5-11.6,8.4-12.8,14C112.7,517.6,105.3,516.6,107.3,509.9z" style="fill: rgb(0, 1, 58);"/>
		<linearGradient id="SVGID_58_" gradientUnits="userSpaceOnUse" x1="37.1853" y1="481.6882" x2="105.9767" y2="481.6882">
			<stop offset="0" style="stop-color:#702800"/>
			<stop offset="5.089694e-02" style="stop-color:#581F00"/>
			<stop offset="0.124" style="stop-color:#3D1600"/>
			<stop offset="0.2075" style="stop-color:#260E00"/>
			<stop offset="0.3042" style="stop-color:#150800"/>
			<stop offset="0.4223" style="stop-color:#090300"/>
			<stop offset="0.5846" style="stop-color:#020100"/>
			<stop offset="1" style="stop-color:#000000"/>
		</linearGradient>
		<path class="st58" d="M105.5,504.8c-5.7-15.3-19.4-33.3-25.2-37.9c-7.1-5.7-8-11.7-14.2-14.3c1.2,3.2,2.9,6,2.9,8.3&#10;&#9;&#9;&#9;c-3.5-2.5-6.2-5.9-8.8-7.2c1.2,1.8,2.8,4,3.5,6c-3.2-2.6-8-3.5-11.7-1.8c3.4,0.9,6.9,1.8,9,5.1c-3.9,0-10.8-2.5-16.3,3.4&#10;&#9;&#9;&#9;c2.5-1.4,6.7,0.4,9.2,1.1c-7.2,0.2-11.4,3-15,5.3c4.2-1.3,8.6-0.8,12-0.9c-3.5,0.9-10.2,4.1-13.7,11.2c3.3-3.5,8.2-5.9,10.3-6.2&#10;&#9;&#9;&#9;c-3.3,3.1-5.3,6.8-5.7,8.9c1.6-1.1,3.2-1.7,4.4-1.1c-0.7,4.3-4,8.5-3.6,7.9c4.1-3.3,7.4-8.3,10.4-12.6c-0.7,3.4-2.1,7.5-3.7,11.1&#10;&#9;&#9;&#9;c2.9-2.9,4.2-4.2,5.9-7.8c-0.5,2.7-0.9,5.5-0.6,7.5c2.2-7.7,7.1-7.7,9.2-12.5c-0.1,1.6-0.6,3.9-1.1,5.6c1.6-2.4,2.6-5.1,5.2-5.8&#10;&#9;&#9;&#9;c0.2,3.7-1.7,7.6-3.2,9.9c2.3-1.9,5.5-4.7,8.6-6.6c-0.7,1.9-3.2,5.6-3.9,7.5c0.7-0.8,3.3-3,4.2-3.4c0,0.8-2.1,3.4-2,4.2&#10;&#9;&#9;&#9;c2.6-1.9,4.2-1.8,6.4-2.4c0,1.2-2.3,4-1.2,3.5c1.8-0.9,4.3-0.1,4.9-0.6c3.1-2,1.7,1.4,0.8,4.7c1.1,0,2.3-0.9,3.3-1.8&#10;&#9;&#9;&#9;c0.5,1.1-0.7,2.9-0.1,4c1.2-0.4,2-0.5,3.1,0c0.8,0.3,9.9,5.1,11.3,10C102,513.5,107.7,510.7,105.5,504.8z" style="fill: rgb(0, 1, 58);"/>
		<linearGradient id="SVGID_59_" gradientUnits="userSpaceOnUse" x1="15.9586" y1="549.2178" x2="107.9322" y2="549.2178">
			<stop offset="0" style="stop-color:#702800"/>
			<stop offset="5.089694e-02" style="stop-color:#581F00"/>
			<stop offset="0.124" style="stop-color:#3D1600"/>
			<stop offset="0.2075" style="stop-color:#260E00"/>
			<stop offset="0.3042" style="stop-color:#150800"/>
			<stop offset="0.4223" style="stop-color:#090300"/>
			<stop offset="0.5846" style="stop-color:#020100"/>
			<stop offset="1" style="stop-color:#000000"/>
		</linearGradient>
		<path class="st59" d="M102.1,518.2c-33.4-14.2-53.6,10.2-67.5,13.7c1,0.1,5.5-0.1,6.7-0.3c-10.9,6.2-28.6,34-25,53&#10;&#9;&#9;&#9;c0.7-5.5,0.5-11.5,4.5-16.5c-0.3,2.1-0.1,4.1,1.2,6.1c-0.3-3.5,2.8-12.8,4.8-13.7c0,2-0.8,5,0.1,6.1c0.7-5.2,3.5-12.5,5.1-8.9&#10;&#9;&#9;&#9;c0.8-4,2.1-9.4,4.1-12.7c-1,3.7-0.5,5.1,0.5,7.7c-0.3-3.8,4.9-10.6,5.9-12.9c0.4,5.3,1.8,5.8,2.6,11.1c0.1-4.5,3.9-12.4,6.7-12.6&#10;&#9;&#9;&#9;c2.7-0.2,2.6,5.7,2.4,8.7c1.8-1.5,2.8-5.2,3.5-7.4c0.4,1.9,1,4.1,1.8,5.6c0-2.5,0.5-5.1,1.2-6.9c0.6,1.4,1.4,3.3,2.1,4.4&#10;&#9;&#9;&#9;c0.9-2.4,0.5-5.4,2.3-7.4c1.3-1.4,2.4,3.8,3.1,1.9c2.1-5.3,5.1-7.1,7.4-8.1c4.5-1.9,15.6-10.3,26.4-4.1&#10;&#9;&#9;&#9;C106.6,527.3,112.5,522.7,102.1,518.2z" style="fill: rgb(0, 1, 58);"/>
		<linearGradient id="SVGID_60_" gradientUnits="userSpaceOnUse" x1="42.4283" y1="562.582" x2="97.2817" y2="562.582">
			<stop offset="0" style="stop-color:#702800"/>
			<stop offset="5.089694e-02" style="stop-color:#581F00"/>
			<stop offset="0.124" style="stop-color:#3D1600"/>
			<stop offset="0.2075" style="stop-color:#260E00"/>
			<stop offset="0.3042" style="stop-color:#150800"/>
			<stop offset="0.4223" style="stop-color:#090300"/>
			<stop offset="0.5846" style="stop-color:#020100"/>
			<stop offset="1" style="stop-color:#000000"/>
		</linearGradient>
		<path class="st60" d="M56.5,556.3c-2.2,3.4-11.3,8.2-14.1,18.2c3-4.7,6-5.9,7.3-7.5c-6.7,10.5-7.2,15.5-7.3,20.4&#10;&#9;&#9;&#9;c1.1-2.9,2.4-6.1,3.7-6.8c-1.7,4.4-1.5,9.8-0.8,14.8c0.3-2,1.3-3.1,1.8-3.5c-0.4,6.5,4,14.1,4.5,15.7c-0.9-5.7-1.4-13-0.9-20&#10;&#9;&#9;&#9;c1.7,3.9,4,6.4,6.5,7.7c-2.2-3.3-4.3-8.5-5.2-11.6c2.3,3.1,4.9,5.3,7.2,7.1c-1.5-2.6-3.1-5.1-3.8-7.9c0.4,0.3,3.5,1.7,3.9,1.8&#10;&#9;&#9;&#9;c-0.6-1.7-2-4-2.2-6c0.6-0.1,2.3,0.4,3.4,1.9c-0.4-3.3-1.8-7.5-3.6-10.4c3.3,1,7,4.6,9.5,6.8c-0.9-3.2-2.6-6.3-3.5-9.6&#10;&#9;&#9;&#9;c1.3-0.3,3.7,1.8,5,2.3c-0.5-2-1.4-4-2-6.1c1.2,0.9,3.2,2.5,3.8,2.6c-1.3-2.8-4.3-10.2-3.3-9.9c2.5,0.7,5.2,2.8,6.6,3.3&#10;&#9;&#9;&#9;c-2-3.3-2.9-7.1-2.2-9.6c2.6,0.5,3.6,2.3,5.3,4.8c-0.2-2.8-1-6.7-0.3-8.2c0.4,0.2,1.9,1.3,2.7,2.6c0.1-1.6-1.8-5.1-0.8-6.4&#10;&#9;&#9;&#9;c1.2-1.5,7.1-15.9,17-21.1c6.2-3.3,0.6-6.5-5.8-2.1C76.6,528.2,64.6,543.9,56.5,556.3z" style="fill: rgb(0, 1, 58);"/>
		<linearGradient id="SVGID_61_" gradientUnits="userSpaceOnUse" x1="1.272865e-07" y1="491.7185" x2="101.2299" y2="491.7185">
			<stop offset="0" style="stop-color:#702800"/>
			<stop offset="5.089694e-02" style="stop-color:#581F00"/>
			<stop offset="0.124" style="stop-color:#3D1600"/>
			<stop offset="0.2075" style="stop-color:#260E00"/>
			<stop offset="0.3042" style="stop-color:#150800"/>
			<stop offset="0.4223" style="stop-color:#090300"/>
			<stop offset="0.5846" style="stop-color:#020100"/>
			<stop offset="1" style="stop-color:#000000"/>
		</linearGradient>
		<path class="st61" d="M50,482.2c-4-1-12.1-8-22.5-7.2c5.6,1.3,7.8,3.8,9.8,4.4c-12.4-2.7-17.4-1.5-21.9,0.1c3.1,0,6.6,0.2,7.8,1.1&#10;&#9;&#9;&#9;c-4.8-0.1-9.8,1.9-14.2,4.3c2-0.5,3.3,0.1,4,0.5c-6.3,1.9-11.7,8.8-13,9.8c4.9-2.9,11.7-5.9,18.4-7.8c-3,3-4.5,6.1-4.7,8.9&#10;&#9;&#9;&#9;c2.3-3.3,6.4-7,8.9-9c-2,3.3-3.1,6.5-3.9,9.3c1.9-2.3,3.6-4.7,5.9-6.3c-0.1,0.5-0.2,3.9-0.2,4.4c1.4-1.2,2.9-3.3,4.8-4.1&#10;&#9;&#9;&#9;c0.4,0.5,0.5,2.3-0.5,3.9c3-1.5,6.4-4.3,8.3-7.1c0.3,3.5-1.6,8.4-2.7,11.5c2.7-2,4.9-4.7,7.6-6.7c0.8,1.2-0.3,4.2-0.3,5.6&#10;&#9;&#9;&#9;c1.7-1.2,3.2-2.7,4.9-4c-0.4,1.5-1.1,3.9-1,4.5c2.2-2.3,7.9-7.7,8-6.6c0.3,2.6-0.6,6-0.6,7.5c2.3-3.1,5.6-5.3,8.1-5.5&#10;&#9;&#9;&#9;c0.5,2.7-0.8,4.2-2.4,6.7c2.6-1.2,5.9-3.3,7.6-3.2c0,0.5-0.5,2.3-1.4,3.5c1.5-0.4,4.1-3.6,5.6-3c1.8,0.6,17.6,1.3,26.3,9&#10;&#9;&#9;&#9;c5.5,4.8,6.4-1.7-0.3-6.3C83.9,491.7,64.7,485.7,50,482.2z" style="fill: rgb(0, 1, 58);"/>
		<linearGradient id="SVGID_62_" gradientUnits="userSpaceOnUse" x1="35.5057" y1="459.9603" x2="100.4157" y2="459.9603">
			<stop offset="0" style="stop-color:#702800"/>
			<stop offset="5.089694e-02" style="stop-color:#581F00"/>
			<stop offset="0.124" style="stop-color:#3D1600"/>
			<stop offset="0.2075" style="stop-color:#260E00"/>
			<stop offset="0.3042" style="stop-color:#150800"/>
			<stop offset="0.4223" style="stop-color:#090300"/>
			<stop offset="0.5846" style="stop-color:#020100"/>
			<stop offset="1" style="stop-color:#000000"/>
		</linearGradient>
		<path class="st62" d="M96.8,494.2c-2-7.8-10.8-30.1-23.3-39.8c-9.1-7-22.6-7.9-27.6-0.9c0.3-4.1,4.4-7.6,7-8.1&#10;&#9;&#9;&#9;c-2.3-1-4.2-1.3-6.3-0.6c0.7-1.7,4.4-2.2,6.7-1.7c-4.1-4.3-11.7-3.3-15.1,0.8c1.7-5.9,7.2-7.6,11.2-6.9c-3.6-2.5-8.4-2.6-12.3-1.6&#10;&#9;&#9;&#9;c1.1-1.9,5.1-4.1,9.1-3.8c-3.8-1.9-7-3.1-10.5-2.6c3.6-1.9,7.9-2.1,15.7,1.5c-1-2.8-8.3-5.7-11-5.8c5.1-0.7,12.6-1.3,25.8,7.2&#10;&#9;&#9;&#9;c-2.1-3.5-7.9-7.9-13.2-9.8c6.7,0,13.2,3.5,21.1,10.5c0-3.8-4.4-7.6-7.7-11c12.1,8.5,19.2,16.7,23.1,30.2&#10;&#9;&#9;&#9;c0.9-4.2-1.1-7.9-2.7-11.4c5.1,7.1,13.1,31.7,13.7,43.6C101,498.5,98.7,502.1,96.8,494.2z" style="fill: rgb(0, 1, 58);"/>
		<linearGradient id="SVGID_63_" gradientUnits="userSpaceOnUse" x1="45.8678" y1="465.3686" x2="97.8486" y2="465.3686">
			<stop offset="0" style="stop-color:#702800"/>
			<stop offset="5.089694e-02" style="stop-color:#581F00"/>
			<stop offset="0.124" style="stop-color:#3D1600"/>
			<stop offset="0.2075" style="stop-color:#260E00"/>
			<stop offset="0.3042" style="stop-color:#150800"/>
			<stop offset="0.4223" style="stop-color:#090300"/>
			<stop offset="0.5846" style="stop-color:#020100"/>
			<stop offset="1" style="stop-color:#000000"/>
		</linearGradient>
		<path class="st63" d="M72.1,447.3c8.4,7.7,14,23.9,16.4,32.6c-0.9-4.6-2-9.6-3.4-14.4c4.9,8.1,11.4,31.6,12.8,42.3&#10;&#9;&#9;&#9;c-14.5-32.4-27.5-53.5-39.1-67.8c-3.9-4.8-6.6-10.1-12.9-17c5,2.8,9.4,10.9,12,14.4c-0.1-0.5-1.5-4.9-5.2-9.8&#10;&#9;&#9;&#9;c5.5,4.4,9,13.1,13.7,19.8c-5.2-9.2-6.8-13.2-7.3-16.6c0.5,3,11.6,19.8,12.9,22.8c-0.3-4.1-4.2-10.2-6.2-13.2&#10;&#9;&#9;&#9;c5,5.9,10.5,14.6,13,21.1C77.7,456.5,75.2,452,72.1,447.3z" style="fill: rgb(0, 1, 58);"/>
		<linearGradient id="SVGID_64_" gradientUnits="userSpaceOnUse" x1="11.3188" y1="460.431" x2="97.7274" y2="460.431">
			<stop offset="0" style="stop-color:#702800"/>
			<stop offset="5.089694e-02" style="stop-color:#581F00"/>
			<stop offset="0.124" style="stop-color:#3D1600"/>
			<stop offset="0.2075" style="stop-color:#260E00"/>
			<stop offset="0.3042" style="stop-color:#150800"/>
			<stop offset="0.4223" style="stop-color:#090300"/>
			<stop offset="0.5846" style="stop-color:#020100"/>
			<stop offset="1" style="stop-color:#000000"/>
		</linearGradient>
		<path class="st64" d="M46.8,444.7c11.4,2.7,23.7,14.1,29.7,20.5c-2.8-3.6-6.1-7.4-9.5-10.9c8.1,4.7,24.6,22,30.6,30.6&#10;&#9;&#9;&#9;c-27.9-21.3-49.5-33.4-66.8-40.4c-5.8-2.4-10.7-5.6-19.6-8.7c6,0.1,13.7,5,17.6,6.9c-0.3-0.4-3.6-3.5-9.2-6.1&#10;&#9;&#9;&#9;c7.2,1.3,14.3,7.1,21.6,10.7c-8.9-5.5-12.2-8.2-14.2-11c1.8,2.4,19.6,11.7,22.1,13.7c-2.1-3.4-8.5-6.8-11.7-8.5&#10;&#9;&#9;&#9;c7.4,2.8,16.3,7.8,21.6,12.2C56.2,450,51.9,447.4,46.8,444.7z" style="fill: rgb(0, 1, 58);"/>
		<linearGradient id="SVGID_65_" gradientUnits="userSpaceOnUse" x1="88.2582" y1="442.2818" x2="103.0227" y2="442.2818">
			<stop offset="0" style="stop-color:#702800"/>
			<stop offset="5.089694e-02" style="stop-color:#581F00"/>
			<stop offset="0.124" style="stop-color:#3D1600"/>
			<stop offset="0.2075" style="stop-color:#260E00"/>
			<stop offset="0.3042" style="stop-color:#150800"/>
			<stop offset="0.4223" style="stop-color:#090300"/>
			<stop offset="0.5846" style="stop-color:#020100"/>
			<stop offset="1" style="stop-color:#000000"/>
		</linearGradient>
		<path class="st65" d="M88.9,428.5c-2.5,11.4,2.4,27.5,5.5,35.7c-2-4.1-4-8.7-5.6-13.3c0.7,9.4,9.1,31.8,14.2,40.9&#10;&#9;&#9;&#9;c-7-34.4-8.5-59.1-7.3-77.7c0.4-6.2-0.4-12.1,0.7-21.4c-2.5,5.5-1.4,14.5-1.5,18.9c-0.2-0.5-1.6-4.7-1.5-11&#10;&#9;&#9;&#9;c-2,7,0.1,15.9,0.2,24.1c-1.1-10.4-2.1-14.6-3.7-17.6c1.4,2.6,2,22.8,2.7,25.9c-2.2-3.4-2.4-10.6-2.6-14.3&#10;&#9;&#9;&#9;c-0.7,7.8-0.1,18.1,1.6,24.7C89.6,439.3,89.1,434.2,88.9,428.5z" style="fill: rgb(0, 1, 58);"/>
		<linearGradient id="SVGID_66_" gradientUnits="userSpaceOnUse" x1="73.6255" y1="453.9337" x2="107.7807" y2="453.9337">
			<stop offset="0" style="stop-color:#702800"/>
			<stop offset="5.089694e-02" style="stop-color:#581F00"/>
			<stop offset="0.124" style="stop-color:#3D1600"/>
			<stop offset="0.2075" style="stop-color:#260E00"/>
			<stop offset="0.3042" style="stop-color:#150800"/>
			<stop offset="0.4223" style="stop-color:#090300"/>
			<stop offset="0.5846" style="stop-color:#020100"/>
			<stop offset="1" style="stop-color:#000000"/>
		</linearGradient>
		<path class="st66" d="M78,443.4c0.5,11.7,9.3,26,14.4,33.1c-3-3.4-6.1-7.4-8.8-11.4c3.1,8.9,16.8,28.4,24.1,35.9&#10;&#9;&#9;&#9;c-15.5-31.5-23.3-55-26.9-73.3c-1.2-6.1-3.5-11.6-4.7-20.9c-1,5.9,2.3,14.4,3.4,18.6c-0.3-0.4-2.8-4.2-4.2-10.2&#10;&#9;&#9;&#9;c-0.1,7.3,4.2,15.4,6.4,23.3c-3.7-9.8-5.7-13.6-8.1-16c2,2.2,7.7,21.5,9.2,24.4c-3-2.7-5.1-9.6-6.1-13.1&#10;&#9;&#9;&#9;c1.3,7.8,4.5,17.5,7.8,23.5C81.4,453.6,79.7,448.9,78,443.4z" style="fill: rgb(0, 1, 58);"/>
		<linearGradient id="SVGID_67_" gradientUnits="userSpaceOnUse" x1="72.7059" y1="438.0865" x2="102.8914" y2="438.0865">
			<stop offset="0" style="stop-color:#702800"/>
			<stop offset="5.089694e-02" style="stop-color:#581F00"/>
			<stop offset="0.124" style="stop-color:#3D1600"/>
			<stop offset="0.2075" style="stop-color:#260E00"/>
			<stop offset="0.3042" style="stop-color:#150800"/>
			<stop offset="0.4223" style="stop-color:#090300"/>
			<stop offset="0.5846" style="stop-color:#020100"/>
			<stop offset="1" style="stop-color:#000000"/>
		</linearGradient>
		<path class="st67" d="M92.5,421.4c6.4,9.8,7.6,26.6,7.6,35.3c0.4-4.5,0.6-9.5,0.5-14.4c2.7,9,2.8,32.9,1.3,43.3&#10;&#9;&#9;&#9;C96.2,451,88.8,427.3,81,410.3c-2.6-5.7-3.9-11.5-8.3-19.8c4.3,4.2,6.5,13,8.1,17.1c0-0.5-0.2-5-2.5-10.8c4.3,5.8,5.5,15,8.4,22.6&#10;&#9;&#9;&#9;c-2.7-10.1-3.3-14.4-2.8-17.7c-0.4,2.9,6.2,22,6.7,25.2c0.8-3.9-1.5-10.8-2.7-14.3c3.5,7,6.6,16.8,7.3,23.7&#10;&#9;&#9;&#9;C95.7,431.7,94.4,426.8,92.5,421.4z" style="fill: rgb(0, 1, 58);"/>
	</g>
</g></g><path d="M -21.211196899414062 568.7796020507812 C -21.211196899414062 568.7796020507812 26.867637634277344 568.7796020507812 -21.211196899414062 568.7796020507812 C -69.29003143310547 568.7796020507812 976.2606811523438 567.7566528320312 976.2606811523438 567.7566528320312 L 977.811767578125 520.4962158203125 C 977.811767578125 520.4962158203125 977.811767578125 520.4962158203125 -20.188217163085938 520.4962158203125" style="fill: url('#gradient-3'); fill-opacity: 1; stroke: rgb(0, 0, 0); stroke-opacity: 1; stroke-width: 0; paint-order: stroke;" transform="matrix(1.0552046298980713, 0, 0, 1.0552046298980713, -27.474760989292122, -24.641990831393798)"/><path d="M 337.08056640625 534.8549194335938 L 337.08056640625 534.8549194335938 L 337.08056640625 534.8549194335938" style="fill-opacity: 1; stroke: rgb(0, 0, 0); stroke-opacity: 1; stroke-width: 0; paint-order: fill;"/></g></g></svg>