<?xml version="1.0" encoding="utf-8"?>
<svg id="master-artboard" viewBox="0 0 510.41534423828125 243.90744018554688" version="1.1" xmlns="http://www.w3.org/2000/svg" x="0px" y="0px" style="enable-background:new 0 0 1400 980;" width="510.41534423828125px" height="243.90744018554688px" xmlns:xlink="http://www.w3.org/1999/xlink"><rect id="ee-background" x="0" y="0" width="510.41534423828125" height="243.90744018554688" style="fill: white; fill-opacity: 0; pointer-events: none;"/>

<linearGradient id="XMLID_11_" gradientUnits="userSpaceOnUse" x1="700" y1="497.06" x2="700" y2="-3.142668e-008">
		<stop offset="0" style="stop-color:#C84A5C"/>
		<stop offset="0.7684" style="stop-color:#534C55"/>
		<stop offset="1" style="stop-color:#403B42"/>
	</linearGradient><linearGradient id="XMLID_13_" gradientUnits="userSpaceOnUse" x1="832.0753" y1="566.1194" x2="691.0612" y2="932.156" gradientTransform="matrix(1 0 0 -1 0 982)">
		<stop offset="2.153458e-007" style="stop-color:#894B5A;stop-opacity:0"/>
		<stop offset="1" style="stop-color:#AAD039"/>
	</linearGradient><path id="XMLID_292_" class="st3" d="M343.1,290.6c-0.8,0-1.5,0.7-1.5,1.5v1.5c0,0.8,0.7,1.5,1.5,1.5c0.8,0,1.5-0.7,1.5-1.5v-1.5&#10;&#9;&#9;C344.6,291.3,343.9,290.6,343.1,290.6z" style="fill: rgb(255, 255, 255);" transform="matrix(1, 0, 0, 1, -31.8583984375, -189.92507934570312)"/><path id="XMLID_314_" class="st3" d="M268.1,221.6c-1.9,0-1.9,3,0,3C270,224.6,270,221.6,268.1,221.6z" style="fill: rgb(255, 255, 255);" transform="matrix(1, 0, 0, 1, -31.8583984375, -189.92507934570312)"/><path id="XMLID_323_" class="st3" d="M88.1,263.6c-1.9,0-1.9,3,0,3C90.1,266.6,90.1,263.6,88.1,263.6z" style="fill: rgb(255, 255, 255);" transform="matrix(1, 0, 0, 1, -31.8583984375, -189.92507934570312)"/><path id="XMLID_339_" class="st3" d="M215.6,271.1c-1.9,0-1.9,3,0,3C217.5,274.1,217.5,271.1,215.6,271.1z" style="fill: rgb(255, 255, 255);" transform="matrix(1, 0, 0, 1, -31.8583984375, -189.92507934570312)"/><path id="XMLID_364_" class="st3" d="M217.1,196.1c-1.9,0-1.9,3,0,3C219,199.1,219,196.1,217.1,196.1z" style="fill: rgb(255, 255, 255);" transform="matrix(1, 0, 0, 1, -31.8583984375, -189.92507934570312)"/><path id="XMLID_401_" class="st3" d="M501,327.5c-1.9,0-1.9,3,0,3C502.9,330.5,502.9,327.5,501,327.5z" style="fill: rgb(255, 255, 255);" transform="matrix(1, 0, 0, 1, -31.8583984375, -189.92507934570312)"/><path id="XMLID_413_" class="st3" d="M407,209.5c-1.9,0-1.9,3,0,3C408.9,212.5,408.9,209.5,407,209.5z" style="fill: rgb(255, 255, 255);" transform="matrix(1, 0, 0, 1, -31.8583984375, -189.92507934570312)"/><path id="XMLID_428_" class="st3" d="M399,317.5c-1.9,0-1.9,3,0,3C400.9,320.5,400.9,317.5,399,317.5z" style="fill: rgb(255, 255, 255);" transform="matrix(1, 0, 0, 1, -31.8583984375, -189.92507934570312)"/><path id="XMLID_429_" class="st3" d="M141,199.5c-1.9,0-1.9,3,0,3C142.9,202.5,142.9,199.5,141,199.5z" style="fill: rgb(255, 255, 255);" transform="matrix(1, 0, 0, 1, -31.8583984375, -189.92507934570312)"/><path id="XMLID_437_" class="st3" d="M333.5,235v4c0,1.9,3,1.9,3,0v-4C336.5,233.1,333.5,233.1,333.5,235z" style="fill: rgb(255, 255, 255);" transform="matrix(1, 0, 0, 1, -31.8583984375, -189.92507934570312)"/>

<g id="XMLID_748_" transform="matrix(1, 0, 0, 1, -35.53436803817749, -481.552001953125)">
		<defs>
			<path d="M 0 0 H 1400 V 980 H 0 V 0 Z" id="XMLID_562_"/>
		</defs>
		<clipPath id="XMLID_110_">
			<use style="overflow:visible;" xlink:href="#XMLID_562_"/>
		</clipPath>
		
		
		<g transform="matrix(-0.5935572981834412, 0, 0, 0.5935572981834412, 688.6065597552779, 154.83070674759097)"><path d="M 829.700012 786.599976 H 1011.700012 V 858.899979 H 829.700012 V 786.599976 Z" id="XMLID_466_" class="st6" style="clip-path: url('#XMLID_110_'); fill: rgb(94, 9, 74);" transform="matrix(1, 0, 0, 1, 1.1368683772161603e-13, -5.684341886080802e-14)"/><path d="M 978.900013 872.5 A 61.200001 61.200001 0 0 1 917.700012 933.700001 A 61.200001 61.200001 0 0 1 856.500011 872.5 A 61.200001 61.200001 0 0 1 917.700012 811.299999 A 61.200001 61.200001 0 0 1 978.900013 872.5 Z" id="XMLID_461_" class="st5" style="clip-path: url('#XMLID_110_'); fill: rgb(83, 76, 85);" transform="matrix(1, 0, 0, 1, 1.1368683772161603e-13, -5.684341886080802e-14)"/><g id="XMLID_133_" class="st7" style="clip-path: url('#XMLID_110_');" transform="matrix(1, 0, 0, 1, 1.1368683772161603e-13, -5.684341886080802e-14)">
			<path id="XMLID_457_" class="st3" d="M917.7,917.8c-25,0-45.3-20.3-45.3-45.3s20.3-45.3,45.3-45.3s45.3,20.3,45.3,45.3&#10;&#9;&#9;&#9;&#9;S942.7,917.8,917.7,917.8z M917.7,831.3c-22.7,0-41.2,18.5-41.2,41.2c0,22.7,18.5,41.2,41.2,41.2c22.7,0,41.2-18.5,41.2-41.2&#10;&#9;&#9;&#9;&#9;C958.9,849.8,940.4,831.3,917.7,831.3z" style="fill: rgb(255, 255, 255);"/>
		</g><path d="M 955.100014 872.400024 A 37.400002 37.400002 0 0 1 917.700012 909.800026 A 37.400002 37.400002 0 0 1 880.300011 872.400024 A 37.400002 37.400002 0 0 1 917.700012 835.000023 A 37.400002 37.400002 0 0 1 955.100014 872.400024 Z" id="XMLID_74_" class="st8" style="clip-path: url('#XMLID_110_'); fill: rgb(255, 209, 224);" transform="matrix(1, 0, 0, 1, 1.1368683772161603e-13, -5.684341886080802e-14)"/><path d="M 947.300013 872.5 A 29.6 29.6 0 0 1 917.700012 902.1 A 29.6 29.6 0 0 1 888.100012 872.5 A 29.6 29.6 0 0 1 917.700012 842.9 A 29.6 29.6 0 0 1 947.300013 872.5 Z" id="XMLID_71_" class="st9" style="clip-path: url('#XMLID_110_'); fill: rgb(230, 11, 110);" transform="matrix(1, 0, 0, 1, 1.1368683772161603e-13, -5.684341886080802e-14)"/><path d="M 942.300013 872.5 A 24.6 24.6 0 0 1 917.700012 897.1 A 24.6 24.6 0 0 1 893.100012 872.5 A 24.6 24.6 0 0 1 917.700012 847.9 A 24.6 24.6 0 0 1 942.300013 872.5 Z" id="XMLID_70_" class="st10" style="clip-path: url('#XMLID_110_'); fill: rgb(255, 255, 255);" transform="matrix(1, 0, 0, 1, 1.1368683772161603e-13, -5.684341886080802e-14)"/><path d="M 381.100006 787.900024 H 533.5 V 860.200027 H 381.100006 V 787.900024 Z" id="XMLID_62_" class="st6" style="clip-path: url('#XMLID_110_'); fill: rgb(94, 9, 74);" transform="matrix(1, 0, 0, 1, 1.1368683772161603e-13, -5.684341886080802e-14)"/><path id="XMLID_40_" class="st9" d="M581.7,700.9c-66.5,1-180.7,0.6-204.9,4.5S328,718,320.9,730.9s-17.6,37.8-17.6,37.8&#10;&#9;&#9;&#9;l-2.3,18.6v81.3h73.4c19.2-11.5,13.7-25.7,27.2-46c14.7-22.3,39.3-22.3,39.3-22.3s14.6,0.2,27.4,0.2c12.8,0,34,10.9,41.3,27.2&#10;&#9;&#9;&#9;c5.7,12.7,12.4,30.5,15,37.7L1021,700.8C921,698.7,637.5,700.1,581.7,700.9z" style="clip-path: url('#XMLID_110_'); fill: rgb(230, 11, 110);" transform="matrix(1, 0, 0, 1, 1.1368683772161603e-13, -5.684341886080802e-14)"/><path id="XMLID_113_" class="st11" d="M1021,700.8L524.6,865.3c0.7,2,1.2,3.2,1.2,3.2h301.1l20-36.6c3.2-5.8,9.2-9.3,15.8-9.3&#10;&#9;&#9;&#9;h113.1c6.7,0,12.8,3.7,15.9,9.6l19.3,36.4h55.9c-5.8-141-11.5-166.2-11.5-166.2C1052.3,701.6,1039.9,701.1,1021,700.8z" style="clip-path: url('#XMLID_110_'); fill: rgb(171, 29, 93);" transform="matrix(1, 0, 0, 1, 1.1368683772161603e-13, -5.684341886080802e-14)"/><path id="XMLID_9_" class="st6" d="M364.2,615.4c0,0-8.3,1.2-1.2,3.9c1.4,0.6,11.1,2.7,11.1,2.7l14.5-8.3&#10;&#9;&#9;&#9;C388.6,613.6,369.4,614.4,364.2,615.4z" style="clip-path: url('#XMLID_110_'); fill: rgb(94, 9, 74);" transform="matrix(1, 0, 0, 1, 1.1368683772161603e-13, -5.684341886080802e-14)"/><path id="XMLID_7_" class="st10" d="M325.7,696.1c0,0,38.2-60.2,49.1-75.2c0,0,8.3-4.8,13.8-7.3l-46.1,75.1&#10;&#9;&#9;&#9;C342.4,688.7,338.9,691.8,325.7,696.1z" style="clip-path: url('#XMLID_110_'); fill: rgb(255, 255, 255);" transform="matrix(1, 0, 0, 1, 1.1368683772161603e-13, -5.684341886080802e-14)"/><path id="XMLID_3_" class="st9" d="M1031.7,610.2c0,0,4.9,0.3,12.9,30.2c8,29.9,9.5,45.9,9.7,46.5c0.2,0.7,2.1,1.2,2.4,4.8&#10;&#9;&#9;&#9;c0.4,3.6,1.2,10-1.4,10.6c0,0-28.8-0.9-57.3-0.6c-28.5,0.3-435.8,0.3-508.7,1.9c-72.9,1.6-123,1-150.1,15.4&#10;&#9;&#9;&#9;c0,0-25.7,13.2-36.5,62.8v64.8h-3.4V787c0,0,0-9.9,7-34.7c7-24.9,16.1-52.1,17.7-54.8s17.3-7.2,18.5-8.8&#10;&#9;&#9;&#9;c1.2-1.6,46.1-75.1,46.1-75.1l111.6-9.8L1031.7,610.2z" style="clip-path: url('#XMLID_110_'); fill: rgb(230, 11, 110);" transform="matrix(1, 0, 0, 1, 1.1368683772161603e-13, -5.684341886080802e-14)"/><path id="XMLID_4_" class="st5" d="M633.2,687.6H558c-5.3,0-9.6-4.3-9.6-9.6v-51.5c0-5.3,4.3-9.6,9.6-9.6h75.2&#10;&#9;&#9;&#9;c5.3,0,9.6,4.3,9.6,9.6V678C642.8,683.3,638.5,687.6,633.2,687.6z" style="clip-path: url('#XMLID_110_'); fill: rgb(83, 76, 85);" transform="matrix(1, 0, 0, 1, 1.1368683772161603e-13, -5.684341886080802e-14)"/><path id="XMLID_6_" class="st10" d="M631.7,684.4h-72.3c-4.1,0-7.5-3.4-7.5-7.5v-49.3c0-4.1,3.4-7.5,7.5-7.5h72.3&#10;&#9;&#9;&#9;c4.1,0,7.5,3.4,7.5,7.5v49.3C639.2,681,635.9,684.4,631.7,684.4z" style="clip-path: url('#XMLID_110_'); fill: rgb(255, 255, 255);" transform="matrix(1, 0, 0, 1, 1.1368683772161603e-13, -5.684341886080802e-14)"/><path id="XMLID_5_" class="st5" d="M350.5,689.7h176.8v-64.7c0-4.5-3.6-8.1-8.1-8l-124.1,1.7c-3.2,0-6.2,1.7-7.9,4.5l-38.5,63.3&#10;&#9;&#9;&#9;C347.9,687.9,348.9,689.7,350.5,689.7z" style="clip-path: url('#XMLID_110_'); fill: rgb(83, 76, 85);" transform="matrix(1, 0, 0, 1, 1.1368683772161603e-13, -5.684341886080802e-14)"/><path id="XMLID_8_" class="st10" d="M422.1,621.7l-30.4,64.6h131.2v-59.7c0-3-2.5-5.5-5.5-5.5L422.1,621.7z" style="clip-path: url('#XMLID_110_'); fill: rgb(255, 255, 255);" transform="matrix(1, 0, 0, 1, 1.1368683772161603e-13, -5.684341886080802e-14)"/><path id="XMLID_10_" class="st10" d="M418.7,621.1l-24.3,0.4c-2.1,0-4,1.1-5.1,2.9l-33.1,55.2c-1.7,2.9,0.3,6.6,3.7,6.6h28.2&#10;&#9;&#9;&#9;L418.7,621.1z" style="clip-path: url('#XMLID_110_'); fill: rgb(255, 255, 255);" transform="matrix(1, 0, 0, 1, 1.1368683772161603e-13, -5.684341886080802e-14)"/><g id="XMLID_12_" class="st7" style="clip-path: url('#XMLID_110_');" transform="matrix(1, 0, 0, 1, 1.1368683772161603e-13, -5.684341886080802e-14)">
			<g id="XMLID_462_">
				<path id="XMLID_463_" class="st12" d="M378.2,845.5h-47.4l-0.1-0.7c-5-66.9,8.5-125.4,8.7-126c0.2-1.1,5.8-27.4,9.7-32.8l1.3,1&#10;&#9;&#9;&#9;&#9;&#9;c-3.7,5.1-9.3,31.9-9.4,32.2c-0.1,0.6-13.5,58.5-8.7,124.8h45.9c4.3,0,8.2-2.5,10-6.5l16.8-36.4c1.9-4.1,6-6.8,10.5-6.8l112-0.3&#10;&#9;&#9;&#9;&#9;&#9;v-91c0-0.1,0.5-8.1-1.7-13.4l1.5-0.7c2.4,5.7,1.8,13.8,1.8,14.2l0,92.6l-113.6,0.3c-3.9,0-7.4,2.3-9.1,5.8l-16.8,36.4&#10;&#9;&#9;&#9;&#9;&#9;C387.6,842.6,383.1,845.5,378.2,845.5z" style="fill: rgb(83, 76, 85);"/>
			</g>
		</g><path id="XMLID_57_" class="st10" d="M1015,689.9c-2.1,0-213.2,0.7-306.1,1.1c-46.5,0.2-99.1,0.8-149.9,1.5&#10;&#9;&#9;&#9;c-50.4,0.6-98,1.2-129.8,1.2c-63.2,0-88,10.1-89,10.5c0,0-25.2,20.1-33.4,46.6c0,0-2.9,9.4-4.4,17.1c0,0,9.5-26.4,21-38.8&#10;&#9;&#9;&#9;c11.5-12.3,19.9-17.4,19.9-17.4c0.2-0.1,24.7-9.9,85.9-9.9c31.9,0,79.5-0.6,129.9-1.2c50.8-0.6,103.3-1.2,149.8-1.4&#10;&#9;&#9;&#9;c92.9-0.4,304-1.1,306.1-1.1c0.3,0,29.4-0.3,41.5,1.1l0.9-8.1C1044.9,689.6,1016.2,689.9,1015,689.9z" style="clip-path: url('#XMLID_110_'); fill: rgb(255, 255, 255);" transform="matrix(1, 0, 0, 1, 1.1368683772161603e-13, -5.684341886080802e-14)"/><path d="M 518.500006 735.400024 A 13.4 7.3 0 0 1 505.100006 742.700025 A 13.4 7.3 0 0 1 491.700006 735.400024 A 13.4 7.3 0 0 1 505.100006 728.100024 A 13.4 7.3 0 0 1 518.500006 735.400024 Z" id="XMLID_14_" class="st6" style="clip-path: url('#XMLID_110_'); fill: rgb(94, 9, 74);" transform="matrix(1, 0, 0, 1, 1.1368683772161603e-13, -5.684341886080802e-14)"/><path id="XMLID_16_" class="st8" d="M504.9,732.5c0,0-11,0.4-12.8,1.1c-1.7,0.6-1.3,3.5,0.5,3.3c1.8-0.2,10.1-0.6,14.8-0.5&#10;&#9;&#9;&#9;c2.5,0.1,4.4,0.5,5.7,0.9c1.4,0.4,2.9,0.7,4.4,0.7h4.7c1.6,0,2.8-1.3,2.8-2.8v-1.9c0-1.6-1.3-2.8-2.8-2.8h-3.8&#10;&#9;&#9;&#9;c-1.3,0-2.5,0.5-3.5,1.4c-0.5,0.4-1.3,0.8-2.5,0.8C509.3,732.6,506.7,732.4,504.9,732.5z" style="clip-path: url('#XMLID_110_'); fill: rgb(255, 209, 224);" transform="matrix(1, 0, 0, 1, 1.1368683772161603e-13, -5.684341886080802e-14)"/><path d="M 316.8 787.799988 A 8.8 22.200001 0 0 1 308 809.999989 A 8.8 22.200001 0 0 1 299.2 787.799988 A 8.8 22.200001 0 0 1 308 765.599987 A 8.8 22.200001 0 0 1 316.8 787.799988 Z" id="XMLID_18_" class="st8" style="clip-path: url('#XMLID_110_'); fill: rgb(255, 209, 224);" transform="matrix(1, 0, 0, 1, 1.1368683772161603e-13, -5.684341886080802e-14)"/><path d="M 313.200012 787.900024 A 7 19.200001 0 0 1 306.200012 807.100025 A 7 19.200001 0 0 1 299.200012 787.900024 A 7 19.200001 0 0 1 306.200012 768.700024 A 7 19.200001 0 0 1 313.200012 787.900024 Z" id="XMLID_15_" class="st10" style="clip-path: url('#XMLID_110_'); fill: rgb(255, 255, 255);" transform="matrix(1, 0, 0, 1, 1.1368683772161603e-13, -5.684341886080802e-14)"/><path id="XMLID_29_" class="st8" d="M288,868.5c3.1,3.8,8.5,3,19,4c10.5,0.9,51.5,1,57.4,0.9c5.9-0.1,12.5-2.2,15.7-8.5&#10;&#9;&#9;&#9;c0.5-1,1-2.1,1.3-3.1c-57.3-0.1-87.5-2.2-96.5-3C284.6,862.2,285.2,865.1,288,868.5z" style="clip-path: url('#XMLID_110_'); fill: rgb(255, 209, 224);" transform="matrix(1, 0, 0, 1, 1.1368683772161603e-13, -5.684341886080802e-14)"/><path id="XMLID_30_" class="st10" d="M381.5,849.5c-6.7-2.6-27.9-1.2-43.5-1.3c-18.6-0.1-39.5-1.2-44.7-1.5&#10;&#9;&#9;&#9;c-5.2-0.3-7.4,6.6-8.1,10.6c-0.1,0.5-0.2,1-0.2,1.5c9,0.8,39.3,2.9,96.5,3c1.3-3.6,1.9-7.1,2.1-9&#10;&#9;&#9;&#9;C383.7,851.3,382.9,850,381.5,849.5z" style="clip-path: url('#XMLID_110_'); fill: rgb(255, 255, 255);" transform="matrix(1, 0, 0, 1, 1.1368683772161603e-13, -5.684341886080802e-14)"/><path id="XMLID_20_" class="st10" d="M298.5,846.9c0,0-7-21.7-8.8-30.1c-0.1-0.5-0.5-0.8-1-0.8h-5.2c-0.2,0-0.4,0.1-0.6,0.2&#10;&#9;&#9;&#9;c-0.7,0.4-2.2,1.9-2.3,5.7c-0.1,4.9-2.3,43.6-2.2,46.7c0.1,3,0.3,4.6,2.5,4.9c2.2,0.3,7.9,0,8.9-0.2c1.1-0.3,1-7.3,0.4-8.2&#10;&#9;&#9;&#9;c-0.6-0.9-3.1-3.2-2.7-6.2c0.4-2.9,4.7-9.1,7.1-10.2S297.7,847.2,298.5,846.9z" style="clip-path: url('#XMLID_110_'); fill: rgb(255, 255, 255);" transform="matrix(1, 0, 0, 1, 1.1368683772161603e-13, -5.684341886080802e-14)"/><path d="M 329.199988 747.400024 A 6.9 12.3 0 0 1 322.299988 759.700025 A 6.9 12.3 0 0 1 315.399988 747.400024 A 6.9 12.3 0 0 1 322.299988 735.100024 A 6.9 12.3 0 0 1 329.199988 747.400024 Z" id="XMLID_24_" transform="matrix(0.9750000238418579, 0.2224000096321106, -0.2224000096321106, 0.9750000238418579, 174.27609512621314, -52.956600978323934)" class="st8" style="clip-path: url('#XMLID_110_'); fill: rgb(255, 209, 224);"/><path id="XMLID_19_" class="st10" d="M314.3,850.6c0,0,0.1,1.6,0.9,1.4c0.8-0.3,4.5-2.4,5.7-4.2c0,0-1.1-13.8-4.6-19.1&#10;&#9;&#9;&#9;c-3.5-5.3-8.2-6.9-11.8-6.9s-13.6,0-13.6,0s-2.3,0.8-2.1,3.1s0.9,3.1,2.6,3.4l13.7,0.1c0,0,4.9,0,7,6.2&#10;&#9;&#9;&#9;C314.1,840.9,314.3,850.6,314.3,850.6z" style="clip-path: url('#XMLID_110_'); fill: rgb(255, 255, 255);" transform="matrix(1, 0, 0, 1, 1.1368683772161603e-13, -5.684341886080802e-14)"/><path d="M 325.799994 745.900024 A 4.9 11.1 0 0 1 320.899994 757.000025 A 4.9 11.1 0 0 1 315.999994 745.900024 A 4.9 11.1 0 0 1 320.899994 734.800024 A 4.9 11.1 0 0 1 325.799994 745.900024 Z" id="XMLID_23_" transform="matrix(0.95250004529953, 0.30470001697540283, -0.30470001697540283, 0.95250004529953, 242.52490595765278, -62.305600141072375)" class="st9" style="clip-path: url('#XMLID_110_'); fill: rgb(230, 11, 110);"/><path d="M 323.499988 745.700012 A 3.7 8.8 0 0 1 319.799988 754.500012 A 3.7 8.8 0 0 1 316.099988 745.700012 A 3.7 8.8 0 0 1 319.799988 736.900012 A 3.7 8.8 0 0 1 323.499988 745.700012 Z" id="XMLID_21_" transform="matrix(0.95250004529953, 0.30470001697540283, -0.30470001697540283, 0.95250004529953, 242.41270808000434, -61.973401039442535)" class="st10" style="clip-path: url('#XMLID_110_'); fill: rgb(255, 255, 255);"/><path id="XMLID_22_" class="st8" d="M331.7,831.7h-3.3c-0.7,0-1.2-0.5-1.2-1.2v-7.9c0-0.7,0.5-1.2,1.2-1.2h3.3&#10;&#9;&#9;&#9;c0.7,0,1.2,0.5,1.2,1.2v7.9C332.9,831.1,332.4,831.7,331.7,831.7z" style="clip-path: url('#XMLID_110_'); fill: rgb(255, 209, 224);" transform="matrix(1, 0, 0, 1, 1.1368683772161603e-13, -5.684341886080802e-14)"/><path id="XMLID_25_" class="st8" d="M326.1,830.1h-1.4c-0.6,0-1.1-0.5-1.1-1.1V824c0-0.6,0.5-1.1,1.1-1.1h1.4&#10;&#9;&#9;&#9;c0.6,0,1.1,0.5,1.1,1.1v5.1C327.2,829.7,326.7,830.1,326.1,830.1z" style="clip-path: url('#XMLID_110_'); fill: rgb(255, 209, 224);" transform="matrix(1, 0, 0, 1, 1.1368683772161603e-13, -5.684341886080802e-14)"/><path id="XMLID_55_" class="st5" d="M1015,693c-2.1,0-213.2,0.7-306.1,1.1c-46.5,0.2-99,0.8-149.8,1.4c-50.4,0.6-98,1.2-129.9,1.2&#10;&#9;&#9;&#9;c-62.6,0-87.6,10.1-87.8,10.2c-0.3,0.2-31.7,20.8-39.9,60.6l1.6,0.3c7.9-38.5,37.8-58.7,39-59.5c1.4-0.6,26.5-10.1,87.1-10.1&#10;&#9;&#9;&#9;c31.9,0,79.5-0.6,129.9-1.2c50.8-0.6,103.3-1.2,149.8-1.4c92.9-0.4,304-1.1,306.1-1.1c0.3,0,29.6-0.3,41.9,1.1l0.2-1.6&#10;&#9;&#9;&#9;C1044.7,692.7,1015.3,693,1015,693z" style="clip-path: url('#XMLID_110_'); fill: rgb(83, 76, 85);" transform="matrix(1, 0, 0, 1, 1.1368683772161603e-13, -5.684341886080802e-14)"/><path id="XMLID_27_" class="st8" d="M340.1,715.2l-3.2-0.7c-0.7-0.1-1.1-0.8-0.9-1.4l1.6-7.7c0.1-0.7,0.8-1.1,1.4-0.9l3.2,0.7&#10;&#9;&#9;&#9;c0.7,0.1,1.1,0.8,0.9,1.4l-1.6,7.7C341.4,714.9,340.7,715.3,340.1,715.2z" style="clip-path: url('#XMLID_110_'); fill: rgb(255, 209, 224);" transform="matrix(1, 0, 0, 1, 1.1368683772161603e-13, -5.684341886080802e-14)"/><path d="M 514.900013 873.799988 A 61.200001 61.200001 0 0 1 453.700012 934.999989 A 61.200001 61.200001 0 0 1 392.500011 873.799988 A 61.200001 61.200001 0 0 1 453.700012 812.599987 A 61.200001 61.200001 0 0 1 514.900013 873.799988 Z" id="XMLID_26_" class="st5" style="clip-path: url('#XMLID_110_'); fill: rgb(83, 76, 85);" transform="matrix(1, 0, 0, 1, 1.1368683772161603e-13, -5.684341886080802e-14)"/><g id="XMLID_33_" class="st7" style="clip-path: url('#XMLID_110_');" transform="matrix(1, 0, 0, 1, 1.1368683772161603e-13, -5.684341886080802e-14)">
			<path id="XMLID_34_" class="st3" d="M453.7,919.1c-25,0-45.3-20.3-45.3-45.3s20.3-45.3,45.3-45.3s45.3,20.3,45.3,45.3&#10;&#9;&#9;&#9;&#9;S478.7,919.1,453.7,919.1z M453.7,832.5c-22.7,0-41.2,18.5-41.2,41.2c0,22.7,18.5,41.2,41.2,41.2s41.2-18.5,41.2-41.2&#10;&#9;&#9;&#9;&#9;C494.9,851,476.4,832.5,453.7,832.5z" style="fill: rgb(255, 255, 255);"/>
		</g><path d="M 491.100014 873.700012 A 37.400002 37.400002 0 0 1 453.700012 911.100014 A 37.400002 37.400002 0 0 1 416.300011 873.700012 A 37.400002 37.400002 0 0 1 453.700012 836.300011 A 37.400002 37.400002 0 0 1 491.100014 873.700012 Z" id="XMLID_32_" class="st8" style="clip-path: url('#XMLID_110_'); fill: rgb(255, 209, 224);" transform="matrix(1, 0, 0, 1, 1.1368683772161603e-13, -5.684341886080802e-14)"/><path d="M 483.300013 873.799988 A 29.6 29.6 0 0 1 453.700012 903.399988 A 29.6 29.6 0 0 1 424.100012 873.799988 A 29.6 29.6 0 0 1 453.700012 844.199987 A 29.6 29.6 0 0 1 483.300013 873.799988 Z" id="XMLID_38_" class="st9" style="clip-path: url('#XMLID_110_'); fill: rgb(230, 11, 110);" transform="matrix(1, 0, 0, 1, 1.1368683772161603e-13, -5.684341886080802e-14)"/><path d="M 478.300013 873.799988 A 24.6 24.6 0 0 1 453.700012 898.399988 A 24.6 24.6 0 0 1 429.100012 873.799988 A 24.6 24.6 0 0 1 453.700012 849.199987 A 24.6 24.6 0 0 1 478.300013 873.799988 Z" id="XMLID_39_" class="st10" style="clip-path: url('#XMLID_110_'); fill: rgb(255, 255, 255);" transform="matrix(1, 0, 0, 1, 1.1368683772161603e-13, -5.684341886080802e-14)"/><path id="XMLID_31_" class="st10" d="M1075.7,855.6c-3.1-4.6-7.3-4.8-11.5-4.3c-5,0.6-42.1,2.8-52.7,3.2c-2.8,0.1-4.8,2.6-4.4,5.3&#10;&#9;&#9;&#9;c0.2,1.5,0.8,3.4,1.9,5.9c0.4,0.8,0.8,1.6,1.2,2.4c11.7-0.1,52-1,67.5-6.7C1077.6,859.3,1076.9,857.3,1075.7,855.6z" style="clip-path: url('#XMLID_110_'); fill: rgb(255, 255, 255);" transform="matrix(1, 0, 0, 1, 1.1368683772161603e-13, -5.684341886080802e-14)"/><path id="XMLID_56_" class="st8" d="M1010.3,868c2.8,4.8,6.9,8.2,9.2,9.8c1.2,0.9,2.6,1.4,4.1,1.5c9.9,0.6,43.8-1.1,47.8-3.6&#10;&#9;&#9;&#9;c1.8-1.1,3.3-3.2,4.5-5.2c1.6-2.8,2.2-6,1.8-9.1C1062.3,867,1022,867.9,1010.3,868z" style="clip-path: url('#XMLID_110_'); fill: rgb(255, 209, 224);" transform="matrix(1, 0, 0, 1, 1.1368683772161603e-13, -5.684341886080802e-14)"/><path id="XMLID_41_" class="st10" d="M1067.5,827.4c0.9-0.6,1.9-0.8,3-0.8c1.8,0.1,4.6,0.4,5.1,1.6c0.8,1.9-0.5,3.5-3.4,4.4&#10;&#9;&#9;&#9;c-2.7,0.8-11.4,10-16.1,19c-1,1.9-2.3,3.5-4,4.7c-1,0.7-2.2,1.3-3.3,1.3c-2.9-0.1-3.4-2.3-2.4-5.1&#10;&#9;&#9;&#9;C1047.4,849.9,1058.7,833,1067.5,827.4z" style="clip-path: url('#XMLID_110_'); fill: rgb(255, 255, 255);" transform="matrix(1, 0, 0, 1, 1.1368683772161603e-13, -5.684341886080802e-14)"/><path id="XMLID_37_" class="st10" d="M1064,851.3c0,0,1.2-3.6,2.4-8.7c1.2-4.9,2.3-10.9,2.3-22.2c0-0.8,0.6-1.4,1.4-1.4h6.4&#10;&#9;&#9;&#9;c2.9,0,5.2,2.3,5.3,5.2c0.2,7,0.6,19.4,0.9,27.1c0.4,9.8,1.3,20.1-0.2,24.7c-0.3,0.9-1.1,1.5-2.1,1.5h-6.1c-0.7,0-1.3-0.4-1.6-1&#10;&#9;&#9;&#9;c-1.1-2.1-3.7-7.1-4.8-12.2C1066.3,857.7,1064,851.3,1064,851.3z" style="clip-path: url('#XMLID_110_'); fill: rgb(255, 255, 255);" transform="matrix(1, 0, 0, 1, 1.1368683772161603e-13, -5.684341886080802e-14)"/><path id="XMLID_42_" class="st5" d="M936.5,707.7h56.1c0.1,0,0.2,0.2,0.1,0.2l-1.5,0.8c-0.7,0.4-1.5,0.6-2.3,0.6h-48.3&#10;&#9;&#9;&#9;c-0.7,0-1.4-0.1-2-0.4l-2.1-1C936.4,707.9,936.4,707.7,936.5,707.7z" style="clip-path: url('#XMLID_110_'); fill: rgb(83, 76, 85);" transform="matrix(1, 0, 0, 1, 1.1368683772161603e-13, -5.684341886080802e-14)"/><path id="XMLID_44_" class="st5" d="M936.5,715.3h56.1c0.1,0,0.2,0.2,0.1,0.2l-1.5,0.8c-0.7,0.4-1.5,0.6-2.3,0.6h-48.3&#10;&#9;&#9;&#9;c-0.7,0-1.4-0.1-2-0.4l-2.1-1C936.4,715.5,936.4,715.3,936.5,715.3z" style="clip-path: url('#XMLID_110_'); fill: rgb(83, 76, 85);" transform="matrix(1, 0, 0, 1, 1.1368683772161603e-13, -5.684341886080802e-14)"/><path id="XMLID_46_" class="st5" d="M936.5,721.3h56.1c0.1,0,0.2,0.2,0.1,0.2l-1.5,0.8c-0.7,0.4-1.5,0.6-2.3,0.6h-48.3&#10;&#9;&#9;&#9;c-0.7,0-1.4-0.1-2-0.4l-2.1-1C936.4,721.5,936.4,721.3,936.5,721.3z" style="clip-path: url('#XMLID_110_'); fill: rgb(83, 76, 85);" transform="matrix(1, 0, 0, 1, 1.1368683772161603e-13, -5.684341886080802e-14)"/><path id="XMLID_45_" class="st5" d="M936.5,728.9h56.1c0.1,0,0.2,0.2,0.1,0.2l-1.5,0.8c-0.7,0.4-1.5,0.6-2.3,0.6h-48.3&#10;&#9;&#9;&#9;c-0.7,0-1.4-0.1-2-0.4l-2.1-1C936.4,729,936.4,728.9,936.5,728.9z" style="clip-path: url('#XMLID_110_'); fill: rgb(83, 76, 85);" transform="matrix(1, 0, 0, 1, 1.1368683772161603e-13, -5.684341886080802e-14)"/><path id="XMLID_50_" class="st5" d="M936.5,735.4h56.1c0.1,0,0.2,0.2,0.1,0.2l-1.5,0.8c-0.7,0.4-1.5,0.6-2.3,0.6h-48.3&#10;&#9;&#9;&#9;c-0.7,0-1.4-0.1-2-0.4l-2.1-1C936.4,735.6,936.4,735.4,936.5,735.4z" style="clip-path: url('#XMLID_110_'); fill: rgb(83, 76, 85);" transform="matrix(1, 0, 0, 1, 1.1368683772161603e-13, -5.684341886080802e-14)"/><path id="XMLID_49_" class="st5" d="M936.5,743h56.1c0.1,0,0.2,0.2,0.1,0.2l-1.5,0.8c-0.7,0.4-1.5,0.6-2.3,0.6h-48.3&#10;&#9;&#9;&#9;c-0.7,0-1.4-0.1-2-0.4l-2.1-1C936.4,743.2,936.4,743,936.5,743z" style="clip-path: url('#XMLID_110_'); fill: rgb(83, 76, 85);" transform="matrix(1, 0, 0, 1, 1.1368683772161603e-13, -5.684341886080802e-14)"/><path id="XMLID_48_" class="st5" d="M936.5,749h56.1c0.1,0,0.2,0.2,0.1,0.2l-1.5,0.8c-0.7,0.4-1.5,0.6-2.3,0.6h-48.3&#10;&#9;&#9;&#9;c-0.7,0-1.4-0.1-2-0.4l-2.1-1C936.4,749.2,936.4,749,936.5,749z" style="clip-path: url('#XMLID_110_'); fill: rgb(83, 76, 85);" transform="matrix(1, 0, 0, 1, 1.1368683772161603e-13, -5.684341886080802e-14)"/><path id="XMLID_47_" class="st5" d="M936.5,756.6h56.1c0.1,0,0.2,0.2,0.1,0.2l-1.5,0.8c-0.7,0.4-1.5,0.6-2.3,0.6h-48.3&#10;&#9;&#9;&#9;c-0.7,0-1.4-0.1-2-0.4l-2.1-1C936.4,756.8,936.4,756.6,936.5,756.6z" style="clip-path: url('#XMLID_110_'); fill: rgb(83, 76, 85);" transform="matrix(1, 0, 0, 1, 1.1368683772161603e-13, -5.684341886080802e-14)"/><path id="XMLID_52_" class="st5" d="M936.5,761.9h56.1c0.1,0,0.2,0.2,0.1,0.2l-1.5,0.8c-0.7,0.4-1.5,0.6-2.3,0.6h-48.3&#10;&#9;&#9;&#9;c-0.7,0-1.4-0.1-2-0.4l-2.1-1C936.4,762.1,936.4,761.9,936.5,761.9z" style="clip-path: url('#XMLID_110_'); fill: rgb(83, 76, 85);" transform="matrix(1, 0, 0, 1, 1.1368683772161603e-13, -5.684341886080802e-14)"/><path id="XMLID_51_" class="st5" d="M936.5,769.5h56.1c0.1,0,0.2,0.2,0.1,0.2l-1.5,0.8c-0.7,0.4-1.5,0.6-2.3,0.6h-48.3&#10;&#9;&#9;&#9;c-0.7,0-1.4-0.1-2-0.4l-2.1-1C936.4,769.7,936.4,769.5,936.5,769.5z" style="clip-path: url('#XMLID_110_'); fill: rgb(83, 76, 85);" transform="matrix(1, 0, 0, 1, 1.1368683772161603e-13, -5.684341886080802e-14)"/><path id="XMLID_54_" class="st9" d="M357.4,649.3c0,0,1.3-0.9,1.9-0.4c0.6,0.5,2.4,5.1,4,20c1.6,14.9,0.8,21.8,0.3,22.2&#10;&#9;&#9;&#9;c-0.5,0.4-1.7,0.4-2.3,0C360.7,690.7,357.4,649.3,357.4,649.3z" style="clip-path: url('#XMLID_110_'); fill: rgb(230, 11, 110);" transform="matrix(1, 0, 0, 1, 1.1368683772161603e-13, -5.684341886080802e-14)"/><path id="XMLID_53_" class="st8" d="M356.5,673.1c-0.9-4.6-1.4-9.2-1.4-13.8c0-4.2,0.4-8.5,2-9.8c3.4-2.9,6.7,39.7,4.2,41.6&#10;&#9;&#9;&#9;C360.3,691.9,358.1,681,356.5,673.1z" style="clip-path: url('#XMLID_110_'); fill: rgb(255, 209, 224);" transform="matrix(1, 0, 0, 1, 1.1368683772161603e-13, -5.684341886080802e-14)"/><path id="XMLID_2_" class="st8" d="M364.2,615.4c0,0,25.4-5.7,355.3-5c0,0,257.7-2.5,312.2-0.2c0.9,0,1.4-1.1,0.7-1.7&#10;&#9;&#9;&#9;c-6-5.3-25.3-20.7-51.1-23.4c-31.3-3.2-226.4-10.3-339.3-7.6s-245.3,8.1-261.5,21.6S364.2,615.4,364.2,615.4z" style="clip-path: url('#XMLID_110_'); fill: rgb(255, 209, 224);" transform="matrix(1, 0, 0, 1, 1.1368683772161603e-13, -5.684341886080802e-14)"/><path id="XMLID_468_" class="st8" d="M411.3,686.3c0,0,6.8-10.8,16.5-14.6c9.7-3.8,19.3-5.5,24-16c4.7-10.5,13-30.6,23.1-34.3&#10;&#9;&#9;&#9;l41.3-0.3c0,0-27.4,19.4-30.1,33.7c-2.7,14.3-26.7,25-38.7,26.5s-16.8,4.9-16.8,4.9H411.3z" style="clip-path: url('#XMLID_110_'); fill: rgb(255, 209, 224);" transform="matrix(1, 0, 0, 1, 1.1368683772161603e-13, -5.684341886080802e-14)"/><path d="M 470.799988 621.400024 H 472.799988 V 686.300026 H 470.799988 V 621.400024 Z" id="XMLID_43_" class="st5" style="clip-path: url('#XMLID_110_'); fill: rgb(83, 76, 85);" transform="matrix(1, 0, 0, 1, 1.1368683772161603e-13, -5.684341886080802e-14)"/><path id="XMLID_467_" class="st8" d="M560.2,684.4c0,0,8.2-12.9,14.8-17c6.7-4.2,13-8.2,15.3-17.2c2.3-9,5.8-24.4,21-30.1h20.4&#10;&#9;&#9;&#9;c0,0-20.2,17.6-20.1,25.3c0.2,7.7-6.8,21.5-15.7,25.5c-9,4-21,5.6-23.3,13.5H560.2z" style="clip-path: url('#XMLID_110_'); fill: rgb(255, 209, 224);" transform="matrix(1, 0, 0, 1, 1.1368683772161603e-13, -5.684341886080802e-14)"/><path id="XMLID_472_" class="st5" d="M744.5,687.6h-75.2c-5.3,0-9.6-4.3-9.6-9.6v-51.5c0-5.3,4.3-9.6,9.6-9.6h75.2&#10;&#9;&#9;&#9;c5.3,0,9.6,4.3,9.6,9.6V678C754.1,683.3,749.8,687.6,744.5,687.6z" style="clip-path: url('#XMLID_110_'); fill: rgb(83, 76, 85);" transform="matrix(1, 0, 0, 1, 1.1368683772161603e-13, -5.684341886080802e-14)"/><path id="XMLID_471_" class="st10" d="M743.1,684.4h-72.3c-4.1,0-7.5-3.4-7.5-7.5v-49.3c0-4.1,3.4-7.5,7.5-7.5h72.3&#10;&#9;&#9;&#9;c4.1,0,7.5,3.4,7.5,7.5v49.3C750.6,681,747.2,684.4,743.1,684.4z" style="clip-path: url('#XMLID_110_'); fill: rgb(255, 255, 255);" transform="matrix(1, 0, 0, 1, 1.1368683772161603e-13, -5.684341886080802e-14)"/><path id="XMLID_470_" class="st8" d="M671.5,684.4c0,0,8.2-12.9,14.8-17c6.7-4.2,13-8.2,15.3-17.2c2.3-9,5.8-24.4,21-30.1h20.4&#10;&#9;&#9;&#9;c0,0-20.2,17.6-20.1,25.3c0.2,7.7-6.8,21.5-15.7,25.5c-9,4-21,5.6-23.3,13.5H671.5z" style="clip-path: url('#XMLID_110_'); fill: rgb(255, 209, 224);" transform="matrix(1, 0, 0, 1, 1.1368683772161603e-13, -5.684341886080802e-14)"/><path id="XMLID_501_" class="st5" d="M856.1,687.6h-75.2c-5.3,0-9.6-4.3-9.6-9.6v-51.5c0-5.3,4.3-9.6,9.6-9.6h75.2&#10;&#9;&#9;&#9;c5.3,0,9.6,4.3,9.6,9.6V678C865.7,683.3,861.4,687.6,856.1,687.6z" style="clip-path: url('#XMLID_110_'); fill: rgb(83, 76, 85);" transform="matrix(1, 0, 0, 1, 1.1368683772161603e-13, -5.684341886080802e-14)"/><path id="XMLID_499_" class="st10" d="M854.7,684.4h-72.3c-4.1,0-7.5-3.4-7.5-7.5v-49.3c0-4.1,3.4-7.5,7.5-7.5h72.3&#10;&#9;&#9;&#9;c4.1,0,7.5,3.4,7.5,7.5v49.3C862.2,681,858.8,684.4,854.7,684.4z" style="clip-path: url('#XMLID_110_'); fill: rgb(255, 255, 255);" transform="matrix(1, 0, 0, 1, 1.1368683772161603e-13, -5.684341886080802e-14)"/><path id="XMLID_496_" class="st8" d="M783.1,684.4c0,0,8.2-12.9,14.8-17c6.7-4.2,13-8.2,15.3-17.2s5.8-24.4,21-30.1h20.4&#10;&#9;&#9;&#9;c0,0-20.2,17.6-20.1,25.3c0.2,7.7-6.8,21.5-15.7,25.5s-21,5.6-23.3,13.5H783.1z" style="clip-path: url('#XMLID_110_'); fill: rgb(255, 209, 224);" transform="matrix(1, 0, 0, 1, 1.1368683772161603e-13, -5.684341886080802e-14)"/><path id="XMLID_506_" class="st5" d="M969.3,687.6h-75.2c-5.3,0-9.6-4.3-9.6-9.6v-51.5c0-5.3,4.3-9.6,9.6-9.6h75.2&#10;&#9;&#9;&#9;c5.3,0,9.6,4.3,9.6,9.6V678C978.9,683.3,974.6,687.6,969.3,687.6z" style="clip-path: url('#XMLID_110_'); fill: rgb(83, 76, 85);" transform="matrix(1, 0, 0, 1, 1.1368683772161603e-13, -5.684341886080802e-14)"/><path id="XMLID_505_" class="st10" d="M967.9,684.4h-72.3c-4.1,0-7.5-3.4-7.5-7.5v-49.3c0-4.1,3.4-7.5,7.5-7.5h72.3&#10;&#9;&#9;&#9;c4.1,0,7.5,3.4,7.5,7.5v49.3C975.4,681,972,684.4,967.9,684.4z" style="clip-path: url('#XMLID_110_'); fill: rgb(255, 255, 255);" transform="matrix(1, 0, 0, 1, 1.1368683772161603e-13, -5.684341886080802e-14)"/><path id="XMLID_504_" class="st8" d="M896.3,684.4c0,0,8.2-12.9,14.8-17c6.7-4.2,13-8.2,15.3-17.2c2.3-9,5.8-24.4,21-30.1h20.4&#10;&#9;&#9;&#9;c0,0-20.2,17.6-20.1,25.3c0.2,7.7-6.8,21.5-15.7,25.5c-9,4-21,5.6-23.3,13.5H896.3z" style="clip-path: url('#XMLID_110_'); fill: rgb(255, 209, 224);" transform="matrix(1, 0, 0, 1, 1.1368683772161603e-13, -5.684341886080802e-14)"/><path d="M 700.445068359375 925.49658203125" style="fill: rgb(255, 209, 224); fill-opacity: 1; stroke: rgb(0, 0, 0); stroke-opacity: 1; stroke-width: 0; paint-order: fill;"/></g>
		
		
		
		
		
		
		
		
		
		
		
		
		
		
		
		
		
		
		
		
		
		
		
		
		
		
			
		
		
			
		
			
		
		
		
		
		
		
		
		
		
		
		
		
		
		
		
		
		
		
		
		
		
		
		
		
		
		
		<g id="XMLID_61_" class="st7" style="clip-path: url('#XMLID_110_');">
			<path id="XMLID_63_" class="st3" d="M538.6,252c-1.7,2-4,3.9-6.9,5.8c-2.9,1.9-6.6,2.9-11,2.9c-3.2,0-6.9-0.8-11.1-2.5&#10;&#9;&#9;&#9;&#9;c-4.2-1.7-8.5-4.5-12.8-8.6c-4.4-4-8.6-9.5-12.7-16.3c-4.1-6.8-7.6-15.2-10.5-25.3c-2.2,6.3-3.8,11.4-5,15.4&#10;&#9;&#9;&#9;&#9;c-1.2,4-2,7.4-2.6,10.2c-0.5,2.8-0.9,5.2-0.9,7.2c-0.1,2-0.1,4-0.1,6c0,2.3,0.5,4.7,1.6,7.3c1.1,2.6,2.2,4.4,3.4,5.5&#10;&#9;&#9;&#9;&#9;c0.3,0.3,0.3,0.6-0.1,0.8c-0.4,0.2-0.7,0.3-1,0.3c-0.3,0-0.5-0.1-0.7-0.2c-3-0.5-5.8-1.6-8.2-3.4c-2.1-1.7-3.9-4.1-5.5-7.2&#10;&#9;&#9;&#9;&#9;c-1.6-3.1-2.4-7.4-2.4-12.9c0-4.9,0.6-10.3,1.9-16.3c1.3-6,3.2-11.8,5.8-17.6c-2.1-1.5-3.7-3.2-4.6-4.9c-0.9-1.8-1.4-3.7-1.4-5.8&#10;&#9;&#9;&#9;&#9;c1.2,0.5,2.8,1,4.7,1.5c1.9,0.5,3.4,1,4.5,1.3c2-4.6,3.6-8.2,4.9-11c1.3-2.7,2.7-5.5,4.2-8.4c1.5-2.8,3.3-6.3,5.4-10.5&#10;&#9;&#9;&#9;&#9;c2.1-4.2,4.9-10.1,8.6-17.8c0.6-0.8,1-1.2,1.1-1.3c0.2-0.1,0.6-0.1,1.4-0.1c0.3,0.3,1,0.8,2.2,1.6c1.1,0.8,2.4,1.6,3.7,2.5&#10;&#9;&#9;&#9;&#9;c1.3,0.9,2.4,1.9,3.4,2.9c1,1,1.5,2,1.5,3.1c0,1.2-0.4,2.5-1.1,3.9c-0.8,1.4-1.5,2.8-2.3,4.4c-0.3,0.6-0.5,1-0.6,1&#10;&#9;&#9;&#9;&#9;c-0.1,0.1-0.4,0.6-0.9,1.6c-0.5,1-1.5,2.9-2.7,5.6c-1.3,2.7-3.4,7.2-6.3,13.3c-2,4-3.6,7.5-4.8,10.5c4.7-0.2,9.8-0.6,15.3-1.4&#10;&#9;&#9;&#9;&#9;c5.4-0.8,10.7-2.2,15.7-4.4c-0.2,0,0.6-0.3,2.3-0.9c1.7-0.6,3.7-1.6,6.2-2.9c2.4-1.3,5.1-2.9,8-4.8c2.9-1.9,5.6-4.1,8-6.6&#10;&#9;&#9;&#9;&#9;c2.4-2.5,4.5-5.2,6.2-8.1c1.7-2.9,2.5-6.1,2.5-9.6c0-3.5-1-6.4-3-8.7c-2-2.3-4.5-4.2-7.7-5.6c-3.1-1.4-6.6-2.5-10.4-3.2&#10;&#9;&#9;&#9;&#9;c-3.8-0.7-7.5-1.1-11.1-1.4c-3.6-0.2-6.9-0.3-9.9-0.3c-3.1,0-5.3,0-6.9,0c-2.1,0-5,0.3-8.5,0.8c-3.5,0.5-7.2,1.3-11.2,2.4&#10;&#9;&#9;&#9;&#9;c-4,1.1-8,2.4-12.1,4c-4.1,1.6-7.9,3.5-11.2,5.7c-3.4,2.2-6.1,4.7-8.1,7.4c-2.1,2.7-3.1,5.7-3.1,8.9c0,0.9,0.6,1.9,1.7,3.1&#10;&#9;&#9;&#9;&#9;c1.1,1.1,3.8,1.7,8.2,1.7c1.3,0,2.8-0.1,4.5-0.2c1.6-0.2,3.5-0.4,5.6-0.7l0.2,0.2c0.2,0,0.4,0.1,0.8,0.2c0.4,0.2,0.6,0.6,0.6,1.4&#10;&#9;&#9;&#9;&#9;l-6.1,12.4c-0.3,0.2-0.6,0.4-0.9,0.7c-0.3,0.3-0.8,0.5-1.4,0.5c-1.2,0-3-0.5-5.2-1.6c-2.3-1.1-4.5-2.5-6.8-4.4&#10;&#9;&#9;&#9;&#9;c-2.3-1.8-4.2-4-5.9-6.5s-2.5-5.2-2.5-8.1c0-7.3,2.3-13.6,7-18.9c4.7-5.3,10.4-9.6,17.2-13.1c6.8-3.4,14.1-6,21.8-7.6&#10;&#9;&#9;&#9;&#9;c7.8-1.6,14.8-2.4,21-2.4c3.8,0,8.8,0.3,14.9,1c6.1,0.7,12,2.2,17.6,4.5c5.6,2.3,10.5,5.7,14.6,10.2c4.1,4.5,6.2,10.6,6.2,18.2&#10;&#9;&#9;&#9;&#9;c0,0.5-0.1,2.1-0.3,4.9c-0.2,2.8-1.1,6.2-2.7,10.1c-1.6,3.9-4.1,8-7.5,12.3c-3.4,4.3-8.3,8.2-14.5,11.9&#10;&#9;&#9;&#9;&#9;c-5.9,3.5-12.5,6.2-19.6,8.1c-7.1,1.9-14.1,3-21.2,3.3c1.1,2.1,2.2,4.2,3.4,6.1c1.2,1.9,2.5,3.9,3.9,5.8c0.5,0.8,1.8,2.7,3.9,5.7&#10;&#9;&#9;&#9;&#9;c2.1,3.1,4.9,6.3,8.2,9.6c3.4,3.4,7.3,6.3,11.7,8.9c4.4,2.6,9.2,3.9,14.2,3.9c1.7,0,3.2-0.2,4.6-0.7c0.9,0,1.4,0.3,1.4,0.9&#10;&#9;&#9;&#9;&#9;C540.2,250,539.7,250.9,538.6,252z" style="fill: rgb(255, 255, 255);"/>
			<path id="XMLID_65_" class="st3" d="M610.9,198.3c-4,2.9-7.4,5-10.3,6.4c-2.9,1.4-5.2,2.3-6.9,2.7c-1.4,3.7-2.9,7.2-4.6,10.5v0.2&#10;&#9;&#9;&#9;&#9;c-0.2,0.2-0.3,0.3-0.3,0.5c-0.1,0.2-0.2,0.3-0.3,0.5c-4.4,7.6-8.9,13.1-13.4,16.4c-4.5,3.3-8.5,5.4-12,6.3&#10;&#9;&#9;&#9;&#9;c-4.1,1.1-8.2,1.1-12.1,0c-4.3-1.5-7.2-3.7-8.8-6.6c-1.6-2.9-2.4-6.1-2.4-9.5c0-3.4,0.6-6.9,1.8-10.3c1.2-3.4,2.4-6.5,3.7-9.1&#10;&#9;&#9;&#9;&#9;c0.8-2,2-4.3,3.7-6.9c1.7-2.6,5-6.6,9.9-12.1c1.1-1.2,2.3-1.9,3.8-2.1c1.5-0.2,2.9,0,4.5,0.5c1.5,0.5,3,1.1,4.5,1.9&#10;&#9;&#9;&#9;&#9;c1.5,0.8,2.7,1.6,3.8,2.4c0.5,0.5,1,0.8,1.6,1.1c0.3,0.3,0.5,0.5,0.5,0.7c0-0.2,0-0.2,0.1-0.2c0.1,0,0.1-0.1,0.1-0.2v-0.2&#10;&#9;&#9;&#9;&#9;c0.5-0.9,0.9-1.7,1.3-2.4c0.4-0.7,0.9-1.3,1.5-1.9l0.2-0.5l0.5-0.5c1.7-1.7,3.6-2.7,5.7-3c0.8-0.3,1.4-0.4,1.8-0.3&#10;&#9;&#9;&#9;&#9;c0.5,0.1,0.8,0.1,0.9,0.1c3.2,0.5,5.5,1.8,6.9,4.1c1.7,2.6,1.9,6.6,0.7,11.9c-0.2,0.2-0.2,0.3-0.2,0.5c0,0.2,0,0.3-0.1,0.6&#10;&#9;&#9;&#9;&#9;c-0.1,0.2-0.1,0.5-0.1,0.8c2.1-0.8,4.2-1.7,6.2-2.9c2-1.1,3.8-2.3,5.5-3.3c0.3-0.2,0.8-0.3,1.4-0.5c1.1-0.3,1.8-0.1,2.3,0.7&#10;&#9;&#9;&#9;&#9;c0.2,0.3,0.2,0.7,0.2,1.1C612,196.7,611.7,197.6,610.9,198.3z M576.5,214.1c1.4-2.7,2.7-5.7,4.1-8.9c-2.1-1.2-3.4-2.9-3.9-4.9&#10;&#9;&#9;&#9;&#9;c-0.5-2.1-0.5-3.9-0.2-5.6c-0.8,0.5-1.6,1-2.5,1.6c-0.9,0.6-1.8,1.2-2.5,1.8c-0.8,0.8-1.5,1.5-2.3,2.1c-0.8,0.6-1.5,1.3-2.3,2.1&#10;&#9;&#9;&#9;&#9;c-0.3,0.2-0.6,0.4-0.9,0.7c-1.7,1.7-3.4,3.8-5,6.3c-1.7,2.5-3.6,6.1-5.7,10.7c-1.4,3.5-2.3,6.4-2.6,8.7c-0.4,2.3-0.4,4-0.1,5.3&#10;&#9;&#9;&#9;&#9;c0.2,1.5,0.6,2.6,1.4,3.2c2.6,0.8,5.3,0,8-2.3c2.7-2.3,5.2-5,7.3-8C571.8,223.1,574.2,218.9,576.5,214.1z M586.4,191.9&#10;&#9;&#9;&#9;&#9;c0.2-1.8-0.1-2.9-0.7-3.2h-0.5c-0.6,0.2-1.2,0.7-1.8,1.7c-0.6,1-1.1,2.2-1.4,3.6c-0.3,1.1-0.3,2.1-0.1,3.2&#10;&#9;&#9;&#9;&#9;c0.2,1.1,0.7,1.8,1.5,2.1c0.3-0.6,0.8-1.6,1.5-3.1C585.6,194.7,586.1,193.3,586.4,191.9z" style="fill: rgb(255, 255, 255);"/>
			<path id="XMLID_149_" class="st3" d="M661.3,218c0.5,0.3,1,0.8,1.5,1.6c0.5,0.8,0,2.2-1.5,4.4c-2.6,4-5.2,7.4-7.9,10.2&#10;&#9;&#9;&#9;&#9;c-2.7,2.8-4.5,4.6-5.4,5.4c-2.1,1.8-4.1,2.9-5.8,3.2c-1.8,0.3-3.1,0.4-4,0.2c-3.2-0.5-5.5-1.9-6.8-4.4c-1.3-2.4-1.9-5.3-1.9-8.5&#10;&#9;&#9;&#9;&#9;c0-3.2,0.4-6.5,1.3-10c0.8-3.4,1.7-6.5,2.6-9.1c-1.7,2.3-3.7,5-6,8c-2.3,3.1-4.6,6-6.9,8.9c-2.3,2.9-4.3,5.5-6.1,7.8&#10;&#9;&#9;&#9;&#9;c-1.8,2.3-2.9,3.8-3.6,4.6c-0.5,0.6-1.2,1-2.3,1c-1.1,0.1-2.3,0-3.6-0.3c-1.3-0.3-2.6-0.8-3.9-1.5c-1.3-0.7-2.4-1.5-3.3-2.4&#10;&#9;&#9;&#9;&#9;c-2-1.8-3-5.4-3-10.8c0-5.3,1.8-11.6,5.3-18.8c2-4,4.2-7.7,6.5-11.2c2.4-3.5,4.8-6.5,7.2-8.9c2.4-2.4,4.8-4.1,7.2-5&#10;&#9;&#9;&#9;&#9;c2.4-0.9,4.5-0.8,6.3,0.2c2.6,1.5,4.7,2.8,6.4,3.9c1.7,1.1,3,2,3.9,2.7l11.7,9.4c1.7,1.5,2.6,2.6,2.6,3.3&#10;&#9;&#9;&#9;&#9;c0.1,0.7-0.2,1.4-0.8,2.2c-0.5,0.6-1,0.9-1.5,0.8c-0.5-0.1-1-0.3-1.3-0.6c-0.8-0.6-1.8-1.4-3-2.4c-1.2-1-2.5-2-3.9-3.1&#10;&#9;&#9;&#9;&#9;c-1.4-1.1-2.7-2-4-2.9c-1.3-0.8-2.3-1.4-2.9-1.7c-2.4-0.8-4.6-0.6-6.5,0.3c-1.9,1-3.5,2.4-4.7,4.2c-0.8,1.1-1.7,2.5-2.7,4.2&#10;&#9;&#9;&#9;&#9;c-1.1,1.8-2.3,3.8-3.6,6.1c-1.3,2.3-2.5,4.7-3.7,7.2s-2.2,5.1-3.1,7.7c-0.6,1.7-0.8,2.8-0.5,3.4c0.3,0.6,0.7,0.9,1.1,0.9&#10;&#9;&#9;&#9;&#9;c0.3,0,0.5-0.1,0.7-0.2c0.2,0,0.3-0.1,0.5-0.2c1.1-0.9,2.6-2.5,4.5-4.8c1.9-2.3,3.9-4.8,6-7.6c2.1-2.7,4-5.5,5.8-8.1&#10;&#9;&#9;&#9;&#9;c1.8-2.7,3.4-4.8,4.6-6.5c1.4-1.8,2.8-2.1,4.4-0.9c1.1,0.8,2.3,1.6,3.7,2.5c1.4,0.9,2.6,1.9,3.8,3c1.1,1.1,2.1,2.1,2.7,3.1&#10;&#9;&#9;&#9;&#9;c0.7,1,1,1.9,0.8,2.6c-1.1,3.1-2.1,6-3,8.8c-0.9,2.8-1.7,5.4-2.3,7.8c-0.6,2.4-1,4.3-1.3,5.8c-0.2,1.5-0.1,2.4,0.3,2.5&#10;&#9;&#9;&#9;&#9;c0.5,0.3,1.5-0.1,3-1.3c1.5-1.1,3.2-2.7,4.9-4.6c1.8-1.9,3.5-3.9,5.2-6.1c1.7-2.1,3-4,3.9-5.5c0.2-0.2,0.4-0.3,0.7-0.5&#10;&#9;&#9;&#9;&#9;C660.5,218.2,661,218,661.3,218z" style="fill: rgb(255, 255, 255);"/>
			<path id="XMLID_175_" class="st3" d="M735.3,156.9c-3.4,7.2-6.7,14.3-10.1,21.4c-3.4,7.1-6.8,14.3-10.3,21.7&#10;&#9;&#9;&#9;&#9;c-3.1,6.7-5.7,12.7-8,17.9c-0.9,2.3-1.9,4.5-2.9,6.6c-1,2.1-1.8,4.1-2.5,5.8c-0.7,1.8-1.2,3.2-1.5,4.2c-0.3,1.1-0.4,1.7-0.2,1.8&#10;&#9;&#9;&#9;&#9;c0.5,0.3,1.7-0.1,3.7-1.3c2-1.1,4.1-2.7,6.4-4.6c2.3-1.9,4.5-3.9,6.8-6.1c2.2-2.1,3.9-4,4.9-5.5c0.2-0.2,0.4-0.3,0.7-0.5&#10;&#9;&#9;&#9;&#9;c0.6-0.3,1.1-0.5,1.6-0.5c0.3,0.3,0.6,0.8,1,1.6c0.4,0.8-0.3,2.2-1.9,4.4c-1.5,2-3.2,3.9-5,5.6c-1.8,1.8-3.6,3.3-5.3,4.7&#10;&#9;&#9;&#9;&#9;c-1.7,1.4-3.2,2.5-4.6,3.4c-1.4,0.9-2.3,1.5-2.7,1.8c-2.6,1.8-4.7,2.9-6.4,3.2c-1.7,0.3-3,0.4-3.9,0.2c-3.2-0.5-5.3-1.9-6.2-4.4&#10;&#9;&#9;&#9;&#9;c-0.9-2.4-1.1-5.3-0.7-8.5c0.5-3.2,1.3-6.5,2.6-10c1.3-3.4,2.6-6.5,3.8-9.1c-2,2.3-4.4,5-7.1,8.1c-2.7,3.1-5.5,6.2-8.2,9.2&#10;&#9;&#9;&#9;&#9;c-2.7,3-5.2,5.6-7.4,7.9c-2.2,2.3-3.7,3.7-4.5,4.4c-1.2,0.9-3.2,1-6,0.1c-2.7-0.8-5-2.2-6.6-4c-1.7-1.8-2.1-5.4-1.4-10.8&#10;&#9;&#9;&#9;&#9;c0.8-5.3,3.4-11.6,7.8-18.8c2.4-4,5.1-7.7,8-11.2c2.9-3.5,5.8-6.5,8.6-8.9c2.8-2.4,5.5-4.1,7.9-5c2.4-0.9,4.5-0.8,6.2,0.2&#10;&#9;&#9;&#9;&#9;c1.4,0.8,2.9,1.8,4.5,3.1c1.6,1.3,2.9,2.3,4,3.1c0.3,0.5,1.1,1,2.3,1.6c1.4-2.3,2.8-5,4.4-8.1c1.5-3.1,3.1-6.4,4.6-9.7&#10;&#9;&#9;&#9;&#9;c1.5-3.4,3.1-6.8,4.6-10.2c1.5-3.4,2.9-6.7,4.1-9.7c-5.8-1.2-11.5-2.2-17.1-3c-5.6-0.8-11.5-0.8-17.8-0.2&#10;&#9;&#9;&#9;&#9;c-0.8,0.2-2.9,0.5-6.5,1.1c-3.6,0.6-7.4,1.7-11.6,3.2c-4.1,1.5-8,3.5-11.6,5.8c-3.6,2.4-5.7,5.3-6.3,8.8&#10;&#9;&#9;&#9;&#9;c-0.3,0.5-0.5,0.7-0.7,0.7c-0.2,0.2-0.3,0.2-0.5,0c-0.3,0-0.6-0.4-0.9-1.1c0-0.2-0.2-0.5-0.5-1.1c-0.5-1.2-0.8-2.7-1.1-4.4&#10;&#9;&#9;&#9;&#9;c-0.3-1.7-0.3-3.6,0-5.7c0.6-4,2.4-7.3,5.3-10c2.9-2.7,6.2-4.8,9.9-6.3c10.2-3.1,20.7-3.9,31.4-2.5c10.7,1.4,20.9,4.1,30.5,8.3&#10;&#9;&#9;&#9;&#9;c1.7-1.8,3.3-3.6,4.8-5.3c1.5-1.7,3.2-3.2,5-4.5c1.8-1.3,3.9-2.4,6.2-3.2c2.3-0.8,5-1.4,8.2-1.7c2.7-0.3,5.3-0.2,7.8,0.5&#10;&#9;&#9;&#9;&#9;c2.1,0.5,4.1,1.4,6,2.7c1.8,1.4,3.1,3.4,3.9,6.2c0.5,1.7,0.3,3.5-0.6,5.4c-0.8,1.9-2,3.6-3.6,5.2c-1.7,1.8-3.7,3.2-6.1,4.1&#10;&#9;&#9;&#9;&#9;c-2.4,0.9-4.7,1.6-7.1,1.9c-2.4,0.4-4.6,0.5-6.8,0.3C738.5,157.4,736.7,157.2,735.3,156.9z M670.9,228.1c1.5-1.1,3.7-3.2,6.6-6.4&#10;&#9;&#9;&#9;&#9;c2.9-3.2,5.8-6.6,8.7-10.2c2.9-3.6,5.6-6.9,8-10c2.4-3.1,4-5,4.6-5.7c-0.6-0.5-1.2-0.9-1.8-1.3c-0.6-0.4-1-0.6-1.1-0.6&#10;&#9;&#9;&#9;&#9;c-1.8-0.6-3.6-0.3-5.4,0.8c-1.8,1.1-3.2,2.6-4.5,4.2c-0.8,1.1-1.8,2.5-3.1,4.2c-1.3,1.8-2.7,3.8-4.4,6.1&#10;&#9;&#9;&#9;&#9;c-1.6,2.3-3.2,4.7-4.7,7.2c-1.5,2.5-2.9,5.1-4.1,7.7c-0.8,1.7-1.1,2.8-0.9,3.4c0.2,0.6,0.5,0.9,0.9,0.9s0.8-0.1,0.9-0.2&#10;&#9;&#9;&#9;&#9;C670.9,228.4,670.9,228.3,670.9,228.1z M756.9,141.7c-0.3-1.4-1.1-2.2-2.3-2.5c-1.2-0.3-2.7-0.1-4.5,0.6&#10;&#9;&#9;&#9;&#9;c-1.8,0.7-3.7,1.9-5.7,3.7c-2.1,1.8-4,4.1-5.8,7c1.4,0,3.1,0,5.3-0.1c2.1-0.1,4.2-0.4,6.1-0.9c1.9-0.5,3.6-1.4,4.9-2.6&#10;&#9;&#9;&#9;&#9;C756.2,145.5,756.9,143.9,756.9,141.7z" style="fill: rgb(255, 255, 255);"/>
			<path id="XMLID_199_" class="st3" d="M937.9,119.5c0.2,0,0.3,0.2,0.5,0.5c0.3,0.6,0.5,1.4,0.5,2.3c-0.2,0.8-0.3,1.5-0.3,2.1&#10;&#9;&#9;&#9;&#9;c-0.1,0.6-0.2,1.2-0.3,1.8c-0.2,0.6-0.3,1.2-0.5,1.8c-0.2,0-0.2,0.1-0.2,0.2c-0.8,2-1.8,3.6-3.1,4.8c-1.3,1.2-2.7,2.2-4.1,3&#10;&#9;&#9;&#9;&#9;c-1.5,0.8-2.8,1.3-4.1,1.7c-1.3,0.4-2.3,0.7-3.1,0.8c-1.2,0.3-2.6,0.5-4,0.6c-1.5,0.1-2.9,0.1-4.5,0.1c-7.9,0-14.2-0.1-18.9-0.3&#10;&#9;&#9;&#9;&#9;c-4.7-0.2-8.3-0.5-11-0.7c-2.7-0.2-4.7-0.5-6-0.7c-1.3-0.2-2.6-0.4-4-0.6c-1.2,2.1-2.3,4.2-3.1,6.1c-0.8,1.9-1.3,3.1-1.3,3.6&#10;&#9;&#9;&#9;&#9;c-1.8,4.9-4.6,11.5-8.4,19.9c-3.7,8.4-7.8,17.9-12,28.4c0,0.2-0.6,1.6-1.8,4.5c-1.2,2.8-2.8,6.3-4.8,10.4&#10;&#9;&#9;&#9;&#9;c-2,4.1-4.4,8.6-7.2,13.5c-2.8,4.9-5.9,9.4-9.2,13.5c-3.3,4.1-6.8,7.6-10.4,10.3s-7.4,4.1-11.2,4.1c-1.4,0-2.8-0.2-4.4-0.5&#10;&#9;&#9;&#9;&#9;c-1.2-0.2-3-0.6-5.4-1.3c-2.4-0.7-4.8-1.8-7.2-3.2c-2.4-1.5-4.6-3.4-6.4-5.7c-1.8-2.4-2.8-5.4-3-9.1c0-4.6,1.4-8,4.2-10.2&#10;&#9;&#9;&#9;&#9;c2.8-2.2,5.8-3.3,8.8-3.3c0.9,0,1.9,0.2,3,0.5c1.1,0.3,1.6,0.8,1.6,1.6c0,0.5-0.4,1.1-1.1,1.8c-0.8,0.8-1.6,1.6-2.6,2.6&#10;&#9;&#9;&#9;&#9;c-1,1-1.9,2.2-2.6,3.6c-0.8,1.4-1.1,2.8-1.1,4.4c0,0.8,0.1,1.8,0.3,3.1c0.2,1.3,0.7,2.6,1.5,3.8c0.8,1.2,1.8,2.3,3,3.2&#10;&#9;&#9;&#9;&#9;c1.2,0.9,2.9,1.4,5,1.4c2.6,0,5.4-1.5,8.4-4.5c3-3,6.1-7.2,9.4-12.7c3.3-5.5,6.8-12.2,10.7-20.1c3.8-7.9,7.8-16.7,11.9-26.5&#10;&#9;&#9;&#9;&#9;l6-14.7c1.4-3.5,3.2-8.1,5.4-13.6c2.2-5.6,4.3-10.8,6.3-15.7c-17.3,0.5-31,2-41.1,4.6c-10.2,2.6-17.9,5.5-23.1,8.8&#10;&#9;&#9;&#9;&#9;c-5.3,3.3-8.6,6.5-10.1,9.5c-1.5,3.1-2.2,5.3-2.2,6.6c0,1.7,0.6,3.1,1.8,4.4c1.2,1.2,2.8,2.2,4.8,3c2,0.8,4.2,1.3,6.8,1.7&#10;&#9;&#9;&#9;&#9;c2.5,0.4,5.2,0.6,7.9,0.6c6.3,0,11.6-0.8,16.2-2.5c4.5-1.7,6.8-4.2,6.8-7.6c0-1.5-0.4-2.8-1.1-3.8c-0.8-1-1.7-1.8-2.9-2.3&#10;&#9;&#9;&#9;&#9;c-1.1-0.5-2.4-0.9-3.7-1c-1.3-0.2-2.5-0.2-3.6-0.2c-1.5,0-2.9,0.2-4.1,0.6c-1.2,0.4-2.2,0.6-3,0.6c-0.5,0-0.7-0.4-0.7-1.2&#10;&#9;&#9;&#9;&#9;c0.5-2.8,1.9-4.7,4.2-5.8c2.4-1,4.7-1.5,7-1.5c4,0,7.3,1.3,10,3.9c2.7,2.6,4,6,4,10.2c0,2.8-0.7,5.4-2.2,8&#10;&#9;&#9;&#9;&#9;c-1.5,2.5-3.4,4.8-5.8,6.8c-2.4,2-5.3,3.6-8.5,4.7c-3.2,1.2-6.6,1.7-10.3,1.7c-6.3,0-11.4-1-15.4-3c-4-2-7.1-4.3-9.5-6.9&#10;&#9;&#9;&#9;&#9;c-2.4-2.6-4.1-5.2-5.2-7.8c-1.1-2.6-1.7-4.5-1.8-5.7c0-0.9,0-1.5-0.1-1.7c-0.1-0.2-0.1-0.6-0.1-1.3c0-7.2,2.5-13,7.4-17.5&#10;&#9;&#9;&#9;&#9;c5-4.5,11.1-8,18.4-10.5c7.3-2.5,15.2-4.2,23.7-5.2c8.5-0.9,16.3-1.4,23.5-1.4c4.4,0,8.5,0.1,12.3,0.2c3.7,0.2,7,0.4,9.7,0.7&#10;&#9;&#9;&#9;&#9;c3.2,0.3,6.2,0.6,8.9,0.9c0.9,0.2,1.8,0.3,2.7,0.3c0.9,0.1,1.8,0.2,2.5,0.3l5-0.2c-0.3,0.3-0.6,0.5-0.8,0.5&#10;&#9;&#9;&#9;&#9;c-0.2,0-0.3,0.1-0.3,0.2c5,0.6,9.6,1,13.7,1.3c4.1,0.2,7.8,0.3,11,0.3c5.5,0,9.9-0.3,13.2-0.8c3.3-0.5,5.8-1.1,7.7-1.8&#10;&#9;&#9;&#9;&#9;c1.8-0.7,3.1-1.5,3.7-2.4c0.6-0.9,1.1-1.7,1.4-2.4c0.3-0.7,0.5-1.3,0.7-1.8C936.5,119.8,937,119.5,937.9,119.5z" style="fill: rgb(255, 255, 255);"/>
			<path id="XMLID_203_" class="st3" d="M901.5,216.9c0.3,0.2,0.6,0.7,1,1.5c0.4,0.8-0.3,2.3-1.9,4.5c-3.1,3.8-6.1,7.2-9.2,10.1&#10;&#9;&#9;&#9;&#9;c-3.1,2.9-5.1,4.7-6.2,5.5c-2.6,1.7-4.7,2.7-6.4,3.1c-1.7,0.4-3,0.5-3.9,0.3h-0.2c-1.2-0.3-2.1-0.6-2.5-0.9&#10;&#9;&#9;&#9;&#9;c-2.1-1.1-3.5-2.8-4-5.2c-0.5-2.4-0.5-5.1,0.1-8.1c0-0.5,0.1-1,0.2-1.7c0.2-0.7,0.3-1.3,0.5-1.9l0.5-2.3c0.8-3.4,2-7.2,3.8-11.6&#10;&#9;&#9;&#9;&#9;c1.8-4.4,4.2-9.3,7.2-14.8c0.3-0.6,0.7-1.3,1.1-2.1c0.3-0.8,0.7-1.5,1.3-2.3c0.5-0.8,1.1-1.7,1.7-2.7c-3.5,0.8-6.8,1.2-9.9,1.3&#10;&#9;&#9;&#9;&#9;c-3.1,0.1-4.7,0.2-5,0.3c-1.4,4.6-3,8.9-4.8,12.8c-1.8,4-3.7,7.5-5.6,10.5c-1.9,3.1-3.8,5.7-5.6,7.9c-1.8,2.2-3.3,4-4.4,5.4&#10;&#9;&#9;&#9;&#9;c-0.9,0.9-1.8,1.2-2.5,0.9c-0.5-0.2-0.8-0.3-1.1-0.5c-0.8-0.8-1-1.4-0.7-2.1c0-0.3,0.2-0.6,0.5-0.9v-0.2c1.1-1.1,2.4-2.6,4.1-4.6&#10;&#9;&#9;&#9;&#9;c1.7-2,3.4-4.4,5.3-7.3c1.8-2.9,3.7-6.2,5.5-9.9c1.8-3.7,3.4-7.7,4.8-12.1c-3.4-0.3-5.5-1.1-6.5-2.5c-1-1.4-1.6-2.7-1.7-3.9&#10;&#9;&#9;&#9;&#9;c-0.2-0.9-0.1-1.8,0.2-2.5c0.3-0.8,0.6-1.4,0.9-2.1c0.5-0.6,0.9-1.1,1.4-1.6c1.1-0.8,2.2-1.3,3.4-1.6c0.6-0.2,1.2-0.2,1.8-0.2&#10;&#9;&#9;&#9;&#9;c1.5,0.2,2.7,0.6,3.6,1.3c0.8,0.7,1.4,1.5,1.8,2.4c0.4,0.9,0.6,1.9,0.6,3c0,1.1,0,1.9,0,2.5c3.5-0.5,7-1.2,10.5-2.2&#10;&#9;&#9;&#9;&#9;c3.5-1,5.9-1.6,7.1-1.9c0.2-0.2,0.4-0.2,0.7-0.2c0.6,0,1.1,0.1,1.4,0.2c0.9,0.5,2.1,1.1,3.6,1.8c1.5,0.8,2.8,1.7,4,2.7&#10;&#9;&#9;&#9;&#9;c1.2,1.1,2.1,2.3,2.7,3.6c0.6,1.3,0.5,2.7-0.2,4.2c-0.8,1.2-1.7,2.8-2.9,4.7c-1.1,1.9-2.4,4-3.8,6.4c-1.4,2.4-2.8,4.9-4.2,7.6&#10;&#9;&#9;&#9;&#9;c-1.5,2.7-2.7,5.3-3.8,7.9c-0.3,0.6-0.6,1.2-0.9,1.8c-0.3,0.6-0.6,1.3-0.9,2.1c-1.2,3.1-2.3,5.7-3.2,8s-1.2,3.6-0.9,3.9&#10;&#9;&#9;&#9;&#9;c0.5,0,0.9-0.1,1.4-0.2c0.9-0.5,2.2-1.3,3.9-2.6c1.7-1.3,3.4-2.8,5.2-4.6c1.8-1.8,3.5-3.5,5.2-5.3c1.7-1.8,3-3.3,3.9-4.7&#10;&#9;&#9;&#9;&#9;c0.2-0.3,0.4-0.5,0.7-0.7C900.5,216.8,901,216.7,901.5,216.9z M866.4,184.8c0-0.6-0.1-1.1-0.2-1.6c-0.2-0.5-0.3-0.8-0.5-1.1&#10;&#9;&#9;&#9;&#9;c-0.3-0.8-1-1.2-1.9-1.4c-1-0.2-1.6,0.4-1.9,1.6c-0.2,1.2,0.4,2,1.6,2.3c0.6,0.2,1.2,0.2,1.8,0.2H866.4z" style="fill: rgb(255, 255, 255);"/>
			<path id="XMLID_228_" class="st3" d="M931,223.3c-3.7,4.7-7,8.4-9.9,10.9c-2.9,2.5-5.5,4.4-7.7,5.6c-2.2,1.2-4.1,1.9-5.5,2.2&#10;&#9;&#9;&#9;&#9;c-1.5,0.2-2.6,0.3-3.3,0.3c-0.8,0-1.3-0.1-1.6-0.2v0.2c0-0.2-0.1-0.2-0.2-0.2c-2.4,0-4.2-1-5.3-3c-1.1-2-1.6-4-1.6-6.2&#10;&#9;&#9;&#9;&#9;c0-4.9,1-10.4,3.1-16.5c2.1-6.1,5.5-13.5,10.4-22.2l7.8-13.7c2.3,0.9,4.3,1.9,6,3c1.5,0.9,2.9,2,4.1,3.3c1.2,1.3,1.8,2.7,1.8,4.2&#10;&#9;&#9;&#9;&#9;c0,0.5-1.1,2.6-3.3,6.4c-2.2,3.8-4.7,8.2-7.3,13.1c-2.7,4.9-5.1,9.7-7.3,14.4c-2.2,4.7-3.3,8.2-3.3,10.3c0,0.3,0.1,0.5,0.2,0.5&#10;&#9;&#9;&#9;&#9;c1.4,0.5,3.3-0.2,5.8-2.1c2.5-1.8,5-4,7.6-6.4c2.5-2.4,4.7-4.7,6.6-6.8c1.9-2.1,3-3.1,3.3-3.1c0.3,0,0.6,0.1,1,0.3&#10;&#9;&#9;&#9;&#9;c0.4,0.2,0.6,0.7,0.6,1.5C933.1,220.4,932.4,221.8,931,223.3z M929.7,181.4c-1.7-0.8-3.3-2.1-4.8-4c-1.5-1.9-2.3-4-2.3-6.3&#10;&#9;&#9;&#9;&#9;c0-0.9,0.2-2,0.7-3.2c0-0.2,0.2-0.5,0.5-1.1c0.3-0.6,0.6-1.3,1-1.9c0.4-0.7,0.8-1.3,1.4-1.9c0.5-0.6,1.2-0.9,1.9-0.9&#10;&#9;&#9;&#9;&#9;c1.8,0.9,3.4,1.8,4.6,2.6c1.2,0.8,2.3,1.7,3.3,2.6c1,0.9,1.5,1.8,1.5,2.7c0-0.8-0.2-0.6-0.5,0.5c-0.3,1.1-0.8,2.4-1.4,4.1&#10;&#9;&#9;&#9;&#9;c-0.6,1.7-1.3,3.3-2.1,4.8c-0.8,1.5-1.6,2.3-2.5,2.3C930.4,181.6,930,181.5,929.7,181.4z" style="fill: rgb(255, 255, 255);"/>
			<path id="XMLID_254_" class="st3" d="M989.2,216.9c0.5,0.2,0.8,0.7,1.1,1.5c0.3,0.8-0.4,2.3-2.1,4.5c-3.1,3.8-6.1,7.2-9.2,10.1&#10;&#9;&#9;&#9;&#9;c-3.1,2.9-5.1,4.7-6.2,5.5c-2.6,1.7-4.7,2.7-6.4,3.1c-1.7,0.4-3,0.5-3.9,0.3h-0.2c-1.2-0.3-2.1-0.6-2.5-0.9&#10;&#9;&#9;&#9;&#9;c-2.6-1.2-4-3.3-4.2-6.3c-0.2-3,0-6.2,0.8-9.7c0.3-1.8,0.6-3.6,1-5.2c0.4-1.6,0.9-3.4,1.6-5.3c0.7-1.9,1.6-4.1,2.6-6.5&#10;&#9;&#9;&#9;&#9;c1.1-2.4,2.5-5.3,4.4-8.7c-2.9,2.7-5.8,5.8-8.7,9.2c-2.6,3.1-5.5,6.6-8.7,10.7c-3.2,4-6.4,8.5-9.6,13.4c0,0.2-0.1,0.3-0.2,0.5&#10;&#9;&#9;&#9;&#9;c-0.5,0.8-1.3,2.1-2.5,4.1c-1.2,2-2.7,4.5-4.4,7.6c-0.8,1.4-1.4,2.8-2.1,4.2c-0.6,1.4-1.1,2.6-1.6,3.3c-0.3,0.8-0.7,1.6-1.1,2.5&#10;&#9;&#9;&#9;&#9;c-0.3,0.8-0.7,1.7-1.3,2.9c-0.5,1.1-1,2.3-1.5,3.6c-2.4,6.1-4.1,12-5,17.6c-2.9,0-5.2-0.6-6.9-1.8c-1.7-1.1-2.9-2.7-3.7-4.8&#10;&#9;&#9;&#9;&#9;c-0.8-2.1-0.5-5.4,0.7-9.9c0.2-0.5,0.4-1.1,0.7-2.1c0.3-0.9,0.7-1.9,1-2.9c0.4-1,0.8-1.9,1.3-2.9c0.6-1.7,1.1-3.2,1.6-4.7&#10;&#9;&#9;&#9;&#9;c0.5-1.5,1.1-2.9,1.8-4.2c0.9-2.1,1.8-4.1,2.5-6c0.8-1.8,1.5-3.4,2.1-4.6c0.6-1.5,1.2-2.9,1.8-4.1c4.7-10.7,8.3-18.9,10.8-24.7&#10;&#9;&#9;&#9;&#9;c2.4-5.8,4.3-10.4,5.5-13.8c0.2-0.6,0.5-1.6,0.9-3c0.5-1.4,0.8-2.1,0.9-2.3v-0.2c0.3-1.1,0.7-2.3,1.1-3.6&#10;&#9;&#9;&#9;&#9;c0.5-1.3,0.8-2.3,0.9-3.1v-0.5c0-0.2,0.2-0.4,0.7-0.7c0.8,0,1.5,0.2,2.3,0.7c1.1,0.8,2.3,1.7,3.8,2.9c1.4,1.1,2.7,2.4,3.9,3.9&#10;&#9;&#9;&#9;&#9;c1.1,1.5,1.9,3,2.3,4.6c0.4,1.6,0.1,3.3-0.8,5.2c-0.3,0.6-0.5,1.1-0.7,1.6c-0.2,0.5-0.4,1-0.7,1.6l-1.1,2.5&#10;&#9;&#9;&#9;&#9;c-0.8,1.4-1.7,3.4-2.7,6.2c3.7-4,7.8-8.2,12.3-12.6c4.5-4.4,8.7-7.8,12.5-10.1c2.9,1.1,5.3,2.3,7.1,3.7c1.7,1.2,3,2.6,4,4.1&#10;&#9;&#9;&#9;&#9;c1,1.5,1,3.1-0.1,4.8c-0.8,1.2-1.7,2.8-2.7,4.7c-1.1,1.9-2.3,4-3.6,6.4c-1.3,2.4-2.6,4.8-3.8,7.2c-1.2,2.4-2.3,4.7-3.2,6.6&#10;&#9;&#9;&#9;&#9;c-1.5,3.2-2.7,6-3.4,8.3c-0.8,2.3-1,3.6-0.7,3.9c0.3,0,0.7-0.1,1.1-0.2c0.9-0.5,2.2-1.3,3.9-2.6c1.7-1.3,3.4-2.8,5.3-4.6&#10;&#9;&#9;&#9;&#9;c1.8-1.8,3.6-3.5,5.3-5.3c1.7-1.8,3-3.3,3.9-4.7c0.2-0.3,0.4-0.5,0.7-0.7C988.5,216.8,988.9,216.7,989.2,216.9z" style="fill: rgb(255, 255, 255);"/>
		</g>
		
		
		
		
		
		
		
		
		
		
		
		
		
		
		
		<path id="XMLID_476_" class="st5" d="M188,297.2c0,0,102.7-187.2,269.4-297.2h-35.8c0,0-118.6,50.9-233.6,191.5V297.2z" style="clip-path: url('#XMLID_110_'); fill: rgb(83, 76, 85);"/>
		
		<path d="M 126.5 0 L 125.4000015258789 248.10000610351562 L 146.8000030517578 224.60000610351562 L 149.6999969482422 0 Z" id="XMLID_509_" class="st4" style="clip-path: url('#XMLID_110_'); fill: rgb(140, 140, 141);"/>
		
		
		
		<path id="XMLID_513_" class="st8" d="M264.1,225.1c0,0,50.9-22.8,93.3,48.2c0,0-5.1-8.1-39-4.2&#10;&#9;&#9;&#9;C283.6,273.2,261.5,244.5,264.1,225.1z" style="clip-path: url('#XMLID_110_'); fill: rgb(255, 209, 224);"/>
		<path id="XMLID_530_" class="st8" d="M415.3,25.8c0,0,8.1,55.1-71.8,76.6c0,0,9.2-2.7,14.6-36.4C363.7,31.5,397.4,18,415.3,25.8z" style="clip-path: url('#XMLID_110_'); fill: rgb(255, 209, 224);"/>
		
		
		
		
	<path d="M 808.3184814453125 965.1598510742188" style="fill: rgb(83, 76, 85); fill-opacity: 1; stroke: rgb(0, 0, 0); stroke-opacity: 1; stroke-width: 0; paint-order: fill;"/></g></svg>